<?xml version="1.0" encoding="UTF-8" standalone="no"?>
<!DOCTYPE svg PUBLIC "-//W3C//DTD SVG 1.1//EN"
 "http://www.w3.org/Graphics/SVG/1.1/DTD/svg11.dtd">
<!-- Generated by graphviz version 2.43.0 (0)
 -->
<!-- Title: %3 Pages: 1 -->
<svg width="2942pt" height="332pt"
 viewBox="0.00 0.00 2942.00 332.00" xmlns="http://www.w3.org/2000/svg" xmlns:xlink="http://www.w3.org/1999/xlink">
<g id="graph0" class="graph" transform="scale(1 1) rotate(0) translate(4 328)">
<title>%3</title>
<polygon fill="white" stroke="transparent" points="-4,4 -4,-328 2938,-328 2938,4 -4,4"/>
<!-- 139972197606336 -->
<g id="node1" class="node">
<title>139972197606336</title>
<polygon fill="#e0ffe0" stroke="black" points="1224,-252 1170,-252 1170,-216 1224,-216 1224,-252"/>
<text text-anchor="middle" x="1197" y="-231.5" font-family="Times,serif" font-size="10.00">0.00</text>
</g>
<!-- 139972210104832 -->
<g id="node2" class="node">
<title>139972210104832</title>
<polygon fill="#006400" stroke="black" points="450,-180 396,-180 396,-144 450,-144 450,-180"/>
<text text-anchor="middle" x="423" y="-159.5" font-family="Times,serif" font-size="10.00">1.00</text>
</g>
<!-- 139972197606336&#45;&gt;139972210104832 -->
<g id="edge1" class="edge">
<title>139972197606336&#45;&gt;139972210104832</title>
<path fill="none" stroke="black" d="M1169.91,-230.55C1053.46,-220.02 595.3,-178.58 460.5,-166.39"/>
<polygon fill="black" stroke="black" points="460.55,-162.88 450.27,-165.47 459.92,-169.85 460.55,-162.88"/>
</g>
<!-- 139972393467072 -->
<g id="node15" class="node">
<title>139972393467072</title>
<polygon fill="#e0ffe0" stroke="black" points="1080,-180 1026,-180 1026,-144 1080,-144 1080,-180"/>
<text text-anchor="middle" x="1053" y="-159.5" font-family="Times,serif" font-size="10.00">0.00</text>
</g>
<!-- 139972197606336&#45;&gt;139972393467072 -->
<g id="edge3" class="edge">
<title>139972197606336&#45;&gt;139972393467072</title>
<path fill="none" stroke="black" d="M1169.91,-219.83C1147.23,-208.81 1114.64,-192.97 1089.63,-180.81"/>
<polygon fill="black" stroke="black" points="1090.98,-177.57 1080.45,-176.35 1087.92,-183.87 1090.98,-177.57"/>
</g>
<!-- 139972902661824 -->
<g id="node28" class="node">
<title>139972902661824</title>
<polygon fill="#e0ffe0" stroke="black" points="1494,-180 1440,-180 1440,-144 1494,-144 1494,-180"/>
<text text-anchor="middle" x="1467" y="-159.5" font-family="Times,serif" font-size="10.00">0.00</text>
</g>
<!-- 139972197606336&#45;&gt;139972902661824 -->
<g id="edge2" class="edge">
<title>139972197606336&#45;&gt;139972902661824</title>
<path fill="none" stroke="black" d="M1224.12,-225.97C1272.84,-213.34 1375.21,-186.8 1430.2,-172.54"/>
<polygon fill="black" stroke="black" points="1431.09,-175.93 1439.89,-170.03 1429.33,-169.15 1431.09,-175.93"/>
</g>
<!-- 139972207815424 -->
<g id="node3" class="node">
<title>139972207815424</title>
<polygon fill="#4a974a" stroke="black" points="162,-108 108,-108 108,-72 162,-72 162,-108"/>
<text text-anchor="middle" x="135" y="-87.5" font-family="Times,serif" font-size="10.00">0.67</text>
</g>
<!-- 139972210104832&#45;&gt;139972207815424 -->
<g id="edge4" class="edge">
<title>139972210104832&#45;&gt;139972207815424</title>
<path fill="none" stroke="black" d="M395.91,-154.41C344.12,-141.83 231.04,-114.34 172.22,-100.05"/>
<polygon fill="black" stroke="black" points="172.78,-96.58 162.23,-97.62 171.12,-103.38 172.78,-96.58"/>
</g>
<!-- 139972191794816 -->
<g id="node7" class="node">
<title>139972191794816</title>
<polygon fill="#4a974a" stroke="black" points="378,-108 324,-108 324,-72 378,-72 378,-108"/>
<text text-anchor="middle" x="351" y="-87.5" font-family="Times,serif" font-size="10.00">0.67</text>
</g>
<!-- 139972210104832&#45;&gt;139972191794816 -->
<g id="edge6" class="edge">
<title>139972210104832&#45;&gt;139972191794816</title>
<path fill="none" stroke="black" d="M405.2,-143.7C396.4,-135.14 385.62,-124.66 376,-115.3"/>
<polygon fill="black" stroke="black" points="378.2,-112.57 368.59,-108.1 373.32,-117.58 378.2,-112.57"/>
</g>
<!-- 139972385117760 -->
<g id="node11" class="node">
<title>139972385117760</title>
<polygon fill="#4a974a" stroke="black" points="522,-108 468,-108 468,-72 522,-72 522,-108"/>
<text text-anchor="middle" x="495" y="-87.5" font-family="Times,serif" font-size="10.00">0.67</text>
</g>
<!-- 139972210104832&#45;&gt;139972385117760 -->
<g id="edge5" class="edge">
<title>139972210104832&#45;&gt;139972385117760</title>
<path fill="none" stroke="black" d="M440.8,-143.7C449.6,-135.14 460.38,-124.66 470,-115.3"/>
<polygon fill="black" stroke="black" points="472.68,-117.58 477.41,-108.1 467.8,-112.57 472.68,-117.58"/>
</g>
<!-- 139972907285760 -->
<g id="node4" class="node">
<title>139972907285760</title>
<polygon fill="#e0ffe0" stroke="black" points="54,-36 0,-36 0,0 54,0 54,-36"/>
<text text-anchor="middle" x="27" y="-15.5" font-family="Times,serif" font-size="10.00">0.00</text>
</g>
<!-- 139972207815424&#45;&gt;139972907285760 -->
<g id="edge7" class="edge">
<title>139972207815424&#45;&gt;139972907285760</title>
<path fill="none" stroke="black" d="M108.58,-71.88C94.59,-62.81 77.22,-51.55 62.11,-41.76"/>
<polygon fill="black" stroke="black" points="63.82,-38.69 53.52,-36.19 60.01,-44.57 63.82,-38.69"/>
</g>
<!-- 139972906674560 -->
<g id="node5" class="node">
<title>139972906674560</title>
<polygon fill="#006400" stroke="black" points="126,-36 72,-36 72,0 126,0 126,-36"/>
<text text-anchor="middle" x="99" y="-15.5" font-family="Times,serif" font-size="10.00">1.00</text>
</g>
<!-- 139972207815424&#45;&gt;139972906674560 -->
<g id="edge9" class="edge">
<title>139972207815424&#45;&gt;139972906674560</title>
<path fill="none" stroke="black" d="M126.1,-71.7C122,-63.73 117.05,-54.1 112.51,-45.26"/>
<polygon fill="black" stroke="black" points="115.48,-43.4 107.8,-36.1 109.26,-46.6 115.48,-43.4"/>
</g>
<!-- 139972403905152 -->
<g id="node6" class="node">
<title>139972403905152</title>
<polygon fill="#006400" stroke="black" points="198,-36 144,-36 144,0 198,0 198,-36"/>
<text text-anchor="middle" x="171" y="-15.5" font-family="Times,serif" font-size="10.00">1.00</text>
</g>
<!-- 139972207815424&#45;&gt;139972403905152 -->
<g id="edge8" class="edge">
<title>139972207815424&#45;&gt;139972403905152</title>
<path fill="none" stroke="black" d="M143.9,-71.7C148,-63.73 152.95,-54.1 157.49,-45.26"/>
<polygon fill="black" stroke="black" points="160.74,-46.6 162.2,-36.1 154.52,-43.4 160.74,-46.6"/>
</g>
<!-- 139972382860032 -->
<g id="node8" class="node">
<title>139972382860032</title>
<polygon fill="#e0ffe0" stroke="black" points="270,-36 216,-36 216,0 270,0 270,-36"/>
<text text-anchor="middle" x="243" y="-15.5" font-family="Times,serif" font-size="10.00">0.00</text>
</g>
<!-- 139972191794816&#45;&gt;139972382860032 -->
<g id="edge10" class="edge">
<title>139972191794816&#45;&gt;139972382860032</title>
<path fill="none" stroke="black" d="M324.58,-71.88C310.59,-62.81 293.22,-51.55 278.11,-41.76"/>
<polygon fill="black" stroke="black" points="279.82,-38.69 269.52,-36.19 276.01,-44.57 279.82,-38.69"/>
</g>
<!-- 139972403914816 -->
<g id="node9" class="node">
<title>139972403914816</title>
<polygon fill="#006400" stroke="black" points="342,-36 288,-36 288,0 342,0 342,-36"/>
<text text-anchor="middle" x="315" y="-15.5" font-family="Times,serif" font-size="10.00">1.00</text>
</g>
<!-- 139972191794816&#45;&gt;139972403914816 -->
<g id="edge11" class="edge">
<title>139972191794816&#45;&gt;139972403914816</title>
<path fill="none" stroke="black" d="M342.1,-71.7C338,-63.73 333.05,-54.1 328.51,-45.26"/>
<polygon fill="black" stroke="black" points="331.48,-43.4 323.8,-36.1 325.26,-46.6 331.48,-43.4"/>
</g>
<!-- 139972406921408 -->
<g id="node10" class="node">
<title>139972406921408</title>
<polygon fill="#006400" stroke="black" points="414,-36 360,-36 360,0 414,0 414,-36"/>
<text text-anchor="middle" x="387" y="-15.5" font-family="Times,serif" font-size="10.00">1.00</text>
</g>
<!-- 139972191794816&#45;&gt;139972406921408 -->
<g id="edge12" class="edge">
<title>139972191794816&#45;&gt;139972406921408</title>
<path fill="none" stroke="black" d="M359.9,-71.7C364,-63.73 368.95,-54.1 373.49,-45.26"/>
<polygon fill="black" stroke="black" points="376.74,-46.6 378.2,-36.1 370.52,-43.4 376.74,-46.6"/>
</g>
<!-- 139972373477824 -->
<g id="node12" class="node">
<title>139972373477824</title>
<polygon fill="#006400" stroke="black" points="486,-36 432,-36 432,0 486,0 486,-36"/>
<text text-anchor="middle" x="459" y="-15.5" font-family="Times,serif" font-size="10.00">1.00</text>
</g>
<!-- 139972385117760&#45;&gt;139972373477824 -->
<g id="edge13" class="edge">
<title>139972385117760&#45;&gt;139972373477824</title>
<path fill="none" stroke="black" d="M486.1,-71.7C482,-63.73 477.05,-54.1 472.51,-45.26"/>
<polygon fill="black" stroke="black" points="475.48,-43.4 467.8,-36.1 469.26,-46.6 475.48,-43.4"/>
</g>
<!-- 139972392387840 -->
<g id="node13" class="node">
<title>139972392387840</title>
<polygon fill="#e0ffe0" stroke="black" points="558,-36 504,-36 504,0 558,0 558,-36"/>
<text text-anchor="middle" x="531" y="-15.5" font-family="Times,serif" font-size="10.00">0.00</text>
</g>
<!-- 139972385117760&#45;&gt;139972392387840 -->
<g id="edge14" class="edge">
<title>139972385117760&#45;&gt;139972392387840</title>
<path fill="none" stroke="black" d="M503.9,-71.7C508,-63.73 512.95,-54.1 517.49,-45.26"/>
<polygon fill="black" stroke="black" points="520.74,-46.6 522.2,-36.1 514.52,-43.4 520.74,-46.6"/>
</g>
<!-- 139972409717248 -->
<g id="node14" class="node">
<title>139972409717248</title>
<polygon fill="#006400" stroke="black" points="630,-36 576,-36 576,0 630,0 630,-36"/>
<text text-anchor="middle" x="603" y="-15.5" font-family="Times,serif" font-size="10.00">1.00</text>
</g>
<!-- 139972385117760&#45;&gt;139972409717248 -->
<g id="edge15" class="edge">
<title>139972385117760&#45;&gt;139972409717248</title>
<path fill="none" stroke="black" d="M521.42,-71.88C535.41,-62.81 552.78,-51.55 567.89,-41.76"/>
<polygon fill="black" stroke="black" points="569.99,-44.57 576.48,-36.19 566.18,-38.69 569.99,-44.57"/>
</g>
<!-- 139972384927168 -->
<g id="node16" class="node">
<title>139972384927168</title>
<polygon fill="#e0ffe0" stroke="black" points="810,-108 756,-108 756,-72 810,-72 810,-108"/>
<text text-anchor="middle" x="783" y="-87.5" font-family="Times,serif" font-size="10.00">0.00</text>
</g>
<!-- 139972393467072&#45;&gt;139972384927168 -->
<g id="edge16" class="edge">
<title>139972393467072&#45;&gt;139972384927168</title>
<path fill="none" stroke="black" d="M1025.88,-153.97C977.16,-141.34 874.79,-114.8 819.8,-100.54"/>
<polygon fill="black" stroke="black" points="820.67,-97.15 810.11,-98.03 818.91,-103.93 820.67,-97.15"/>
</g>
<!-- 139972390241152 -->
<g id="node20" class="node">
<title>139972390241152</title>
<polygon fill="#006400" stroke="black" points="1044,-108 990,-108 990,-72 1044,-72 1044,-108"/>
<text text-anchor="middle" x="1017" y="-87.5" font-family="Times,serif" font-size="10.00">1.00</text>
</g>
<!-- 139972393467072&#45;&gt;139972390241152 -->
<g id="edge17" class="edge">
<title>139972393467072&#45;&gt;139972390241152</title>
<path fill="none" stroke="black" d="M1044.1,-143.7C1040,-135.73 1035.05,-126.1 1030.51,-117.26"/>
<polygon fill="black" stroke="black" points="1033.48,-115.4 1025.8,-108.1 1027.26,-118.6 1033.48,-115.4"/>
</g>
<!-- 139972211536512 -->
<g id="node24" class="node">
<title>139972211536512</title>
<polygon fill="#e0ffe0" stroke="black" points="1152,-108 1098,-108 1098,-72 1152,-72 1152,-108"/>
<text text-anchor="middle" x="1125" y="-87.5" font-family="Times,serif" font-size="10.00">0.00</text>
</g>
<!-- 139972393467072&#45;&gt;139972211536512 -->
<g id="edge18" class="edge">
<title>139972393467072&#45;&gt;139972211536512</title>
<path fill="none" stroke="black" d="M1070.8,-143.7C1079.6,-135.14 1090.38,-124.66 1100,-115.3"/>
<polygon fill="black" stroke="black" points="1102.68,-117.58 1107.41,-108.1 1097.8,-112.57 1102.68,-117.58"/>
</g>
<!-- 139972204049088 -->
<g id="node17" class="node">
<title>139972204049088</title>
<polygon fill="#e0ffe0" stroke="black" points="702,-36 648,-36 648,0 702,0 702,-36"/>
<text text-anchor="middle" x="675" y="-15.5" font-family="Times,serif" font-size="10.00">0.00</text>
</g>
<!-- 139972384927168&#45;&gt;139972204049088 -->
<g id="edge19" class="edge">
<title>139972384927168&#45;&gt;139972204049088</title>
<path fill="none" stroke="black" d="M756.58,-71.88C742.59,-62.81 725.22,-51.55 710.11,-41.76"/>
<polygon fill="black" stroke="black" points="711.82,-38.69 701.52,-36.19 708.01,-44.57 711.82,-38.69"/>
</g>
<!-- 139972416730112 -->
<g id="node18" class="node">
<title>139972416730112</title>
<polygon fill="#e0ffe0" stroke="black" points="774,-36 720,-36 720,0 774,0 774,-36"/>
<text text-anchor="middle" x="747" y="-15.5" font-family="Times,serif" font-size="10.00">0.00</text>
</g>
<!-- 139972384927168&#45;&gt;139972416730112 -->
<g id="edge20" class="edge">
<title>139972384927168&#45;&gt;139972416730112</title>
<path fill="none" stroke="black" d="M774.1,-71.7C770,-63.73 765.05,-54.1 760.51,-45.26"/>
<polygon fill="black" stroke="black" points="763.48,-43.4 755.8,-36.1 757.26,-46.6 763.48,-43.4"/>
</g>
<!-- 139972419038528 -->
<g id="node19" class="node">
<title>139972419038528</title>
<polygon fill="#e0ffe0" stroke="black" points="846,-36 792,-36 792,0 846,0 846,-36"/>
<text text-anchor="middle" x="819" y="-15.5" font-family="Times,serif" font-size="10.00">0.00</text>
</g>
<!-- 139972384927168&#45;&gt;139972419038528 -->
<g id="edge21" class="edge">
<title>139972384927168&#45;&gt;139972419038528</title>
<path fill="none" stroke="black" d="M791.9,-71.7C796,-63.73 800.95,-54.1 805.49,-45.26"/>
<polygon fill="black" stroke="black" points="808.74,-46.6 810.2,-36.1 802.52,-43.4 808.74,-46.6"/>
</g>
<!-- 139972362948160 -->
<g id="node21" class="node">
<title>139972362948160</title>
<polygon fill="#006400" stroke="black" points="918,-36 864,-36 864,0 918,0 918,-36"/>
<text text-anchor="middle" x="891" y="-15.5" font-family="Times,serif" font-size="10.00">1.00</text>
</g>
<!-- 139972390241152&#45;&gt;139972362948160 -->
<g id="edge22" class="edge">
<title>139972390241152&#45;&gt;139972362948160</title>
<path fill="none" stroke="black" d="M989.97,-73.98C971.66,-63.81 947.25,-50.25 927.26,-39.14"/>
<polygon fill="black" stroke="black" points="928.86,-36.03 918.42,-34.23 925.46,-42.15 928.86,-36.03"/>
</g>
<!-- 139972416717760 -->
<g id="node22" class="node">
<title>139972416717760</title>
<polygon fill="#e0ffe0" stroke="black" points="990,-36 936,-36 936,0 990,0 990,-36"/>
<text text-anchor="middle" x="963" y="-15.5" font-family="Times,serif" font-size="10.00">0.00</text>
</g>
<!-- 139972390241152&#45;&gt;139972416717760 -->
<g id="edge24" class="edge">
<title>139972390241152&#45;&gt;139972416717760</title>
<path fill="none" stroke="black" d="M1003.65,-71.7C997.24,-63.39 989.44,-53.28 982.39,-44.14"/>
<polygon fill="black" stroke="black" points="985.07,-41.88 976.19,-36.1 979.53,-46.16 985.07,-41.88"/>
</g>
<!-- 139972396159680 -->
<g id="node23" class="node">
<title>139972396159680</title>
<polygon fill="#e0ffe0" stroke="black" points="1062,-36 1008,-36 1008,0 1062,0 1062,-36"/>
<text text-anchor="middle" x="1035" y="-15.5" font-family="Times,serif" font-size="10.00">0.00</text>
</g>
<!-- 139972390241152&#45;&gt;139972396159680 -->
<g id="edge23" class="edge">
<title>139972390241152&#45;&gt;139972396159680</title>
<path fill="none" stroke="black" d="M1021.45,-71.7C1023.45,-63.9 1025.87,-54.51 1028.1,-45.83"/>
<polygon fill="black" stroke="black" points="1031.5,-46.66 1030.6,-36.1 1024.72,-44.92 1031.5,-46.66"/>
</g>
<!-- 139972392500992 -->
<g id="node25" class="node">
<title>139972392500992</title>
<polygon fill="#e0ffe0" stroke="black" points="1134,-36 1080,-36 1080,0 1134,0 1134,-36"/>
<text text-anchor="middle" x="1107" y="-15.5" font-family="Times,serif" font-size="10.00">0.00</text>
</g>
<!-- 139972211536512&#45;&gt;139972392500992 -->
<g id="edge25" class="edge">
<title>139972211536512&#45;&gt;139972392500992</title>
<path fill="none" stroke="black" d="M1120.55,-71.7C1118.55,-63.9 1116.13,-54.51 1113.9,-45.83"/>
<polygon fill="black" stroke="black" points="1117.28,-44.92 1111.4,-36.1 1110.5,-46.66 1117.28,-44.92"/>
</g>
<!-- 139972196484992 -->
<g id="node26" class="node">
<title>139972196484992</title>
<polygon fill="#e0ffe0" stroke="black" points="1206,-36 1152,-36 1152,0 1206,0 1206,-36"/>
<text text-anchor="middle" x="1179" y="-15.5" font-family="Times,serif" font-size="10.00">0.00</text>
</g>
<!-- 139972211536512&#45;&gt;139972196484992 -->
<g id="edge27" class="edge">
<title>139972211536512&#45;&gt;139972196484992</title>
<path fill="none" stroke="black" d="M1138.35,-71.7C1144.76,-63.39 1152.56,-53.28 1159.61,-44.14"/>
<polygon fill="black" stroke="black" points="1162.47,-46.16 1165.81,-36.1 1156.93,-41.88 1162.47,-46.16"/>
</g>
<!-- 139972209328640 -->
<g id="node27" class="node">
<title>139972209328640</title>
<polygon fill="#e0ffe0" stroke="black" points="1278,-36 1224,-36 1224,0 1278,0 1278,-36"/>
<text text-anchor="middle" x="1251" y="-15.5" font-family="Times,serif" font-size="10.00">0.00</text>
</g>
<!-- 139972211536512&#45;&gt;139972209328640 -->
<g id="edge26" class="edge">
<title>139972211536512&#45;&gt;139972209328640</title>
<path fill="none" stroke="black" d="M1152.03,-73.98C1170.34,-63.81 1194.75,-50.25 1214.74,-39.14"/>
<polygon fill="black" stroke="black" points="1216.54,-42.15 1223.58,-34.23 1213.14,-36.03 1216.54,-42.15"/>
</g>
<!-- 139972903621824 -->
<g id="node29" class="node">
<title>139972903621824</title>
<polygon fill="#e0ffe0" stroke="black" points="1458,-108 1404,-108 1404,-72 1458,-72 1458,-108"/>
<text text-anchor="middle" x="1431" y="-87.5" font-family="Times,serif" font-size="10.00">0.00</text>
</g>
<!-- 139972902661824&#45;&gt;139972903621824 -->
<g id="edge28" class="edge">
<title>139972902661824&#45;&gt;139972903621824</title>
<path fill="none" stroke="black" d="M1458.1,-143.7C1454,-135.73 1449.05,-126.1 1444.51,-117.26"/>
<polygon fill="black" stroke="black" points="1447.48,-115.4 1439.8,-108.1 1441.26,-118.6 1447.48,-115.4"/>
</g>
<!-- 139972380299072 -->
<g id="node33" class="node">
<title>139972380299072</title>
<polygon fill="#006400" stroke="black" points="1602,-108 1548,-108 1548,-72 1602,-72 1602,-108"/>
<text text-anchor="middle" x="1575" y="-87.5" font-family="Times,serif" font-size="10.00">1.00</text>
</g>
<!-- 139972902661824&#45;&gt;139972380299072 -->
<g id="edge30" class="edge">
<title>139972902661824&#45;&gt;139972380299072</title>
<path fill="none" stroke="black" d="M1493.42,-143.88C1507.41,-134.81 1524.78,-123.55 1539.89,-113.76"/>
<polygon fill="black" stroke="black" points="1541.99,-116.57 1548.48,-108.19 1538.18,-110.69 1541.99,-116.57"/>
</g>
<!-- 139972386690816 -->
<g id="node37" class="node">
<title>139972386690816</title>
<polygon fill="#e0ffe0" stroke="black" points="1782,-108 1728,-108 1728,-72 1782,-72 1782,-108"/>
<text text-anchor="middle" x="1755" y="-87.5" font-family="Times,serif" font-size="10.00">0.00</text>
</g>
<!-- 139972902661824&#45;&gt;139972386690816 -->
<g id="edge29" class="edge">
<title>139972902661824&#45;&gt;139972386690816</title>
<path fill="none" stroke="black" d="M1494.09,-154.41C1545.88,-141.83 1658.96,-114.34 1717.78,-100.05"/>
<polygon fill="black" stroke="black" points="1718.88,-103.38 1727.77,-97.62 1717.22,-96.58 1718.88,-103.38"/>
</g>
<!-- 139972212281792 -->
<g id="node30" class="node">
<title>139972212281792</title>
<polygon fill="#e0ffe0" stroke="black" points="1350,-36 1296,-36 1296,0 1350,0 1350,-36"/>
<text text-anchor="middle" x="1323" y="-15.5" font-family="Times,serif" font-size="10.00">0.00</text>
</g>
<!-- 139972903621824&#45;&gt;139972212281792 -->
<g id="edge31" class="edge">
<title>139972903621824&#45;&gt;139972212281792</title>
<path fill="none" stroke="black" d="M1404.58,-71.88C1390.59,-62.81 1373.22,-51.55 1358.11,-41.76"/>
<polygon fill="black" stroke="black" points="1359.82,-38.69 1349.52,-36.19 1356.01,-44.57 1359.82,-38.69"/>
</g>
<!-- 139972903628544 -->
<g id="node31" class="node">
<title>139972903628544</title>
<polygon fill="#e0ffe0" stroke="black" points="1422,-36 1368,-36 1368,0 1422,0 1422,-36"/>
<text text-anchor="middle" x="1395" y="-15.5" font-family="Times,serif" font-size="10.00">0.00</text>
</g>
<!-- 139972903621824&#45;&gt;139972903628544 -->
<g id="edge32" class="edge">
<title>139972903621824&#45;&gt;139972903628544</title>
<path fill="none" stroke="black" d="M1422.1,-71.7C1418,-63.73 1413.05,-54.1 1408.51,-45.26"/>
<polygon fill="black" stroke="black" points="1411.48,-43.4 1403.8,-36.1 1405.26,-46.6 1411.48,-43.4"/>
</g>
<!-- 139972377456896 -->
<g id="node32" class="node">
<title>139972377456896</title>
<polygon fill="#e0ffe0" stroke="black" points="1494,-36 1440,-36 1440,0 1494,0 1494,-36"/>
<text text-anchor="middle" x="1467" y="-15.5" font-family="Times,serif" font-size="10.00">0.00</text>
</g>
<!-- 139972903621824&#45;&gt;139972377456896 -->
<g id="edge33" class="edge">
<title>139972903621824&#45;&gt;139972377456896</title>
<path fill="none" stroke="black" d="M1439.9,-71.7C1444,-63.73 1448.95,-54.1 1453.49,-45.26"/>
<polygon fill="black" stroke="black" points="1456.74,-46.6 1458.2,-36.1 1450.52,-43.4 1456.74,-46.6"/>
</g>
<!-- 139972204042624 -->
<g id="node34" class="node">
<title>139972204042624</title>
<polygon fill="#006400" stroke="black" points="1566,-36 1512,-36 1512,0 1566,0 1566,-36"/>
<text text-anchor="middle" x="1539" y="-15.5" font-family="Times,serif" font-size="10.00">1.00</text>
</g>
<!-- 139972380299072&#45;&gt;139972204042624 -->
<g id="edge34" class="edge">
<title>139972380299072&#45;&gt;139972204042624</title>
<path fill="none" stroke="black" d="M1566.1,-71.7C1562,-63.73 1557.05,-54.1 1552.51,-45.26"/>
<polygon fill="black" stroke="black" points="1555.48,-43.4 1547.8,-36.1 1549.26,-46.6 1555.48,-43.4"/>
</g>
<!-- 139972362945344 -->
<g id="node35" class="node">
<title>139972362945344</title>
<polygon fill="#e0ffe0" stroke="black" points="1638,-36 1584,-36 1584,0 1638,0 1638,-36"/>
<text text-anchor="middle" x="1611" y="-15.5" font-family="Times,serif" font-size="10.00">0.00</text>
</g>
<!-- 139972380299072&#45;&gt;139972362945344 -->
<g id="edge35" class="edge">
<title>139972380299072&#45;&gt;139972362945344</title>
<path fill="none" stroke="black" d="M1583.9,-71.7C1588,-63.73 1592.95,-54.1 1597.49,-45.26"/>
<polygon fill="black" stroke="black" points="1600.74,-46.6 1602.2,-36.1 1594.52,-43.4 1600.74,-46.6"/>
</g>
<!-- 139972398329216 -->
<g id="node36" class="node">
<title>139972398329216</title>
<polygon fill="#e0ffe0" stroke="black" points="1710,-36 1656,-36 1656,0 1710,0 1710,-36"/>
<text text-anchor="middle" x="1683" y="-15.5" font-family="Times,serif" font-size="10.00">0.00</text>
</g>
<!-- 139972380299072&#45;&gt;139972398329216 -->
<g id="edge36" class="edge">
<title>139972380299072&#45;&gt;139972398329216</title>
<path fill="none" stroke="black" d="M1601.42,-71.88C1615.41,-62.81 1632.78,-51.55 1647.89,-41.76"/>
<polygon fill="black" stroke="black" points="1649.99,-44.57 1656.48,-36.19 1646.18,-38.69 1649.99,-44.57"/>
</g>
<!-- 139972205504768 -->
<g id="node38" class="node">
<title>139972205504768</title>
<polygon fill="#e0ffe0" stroke="black" points="1782,-36 1728,-36 1728,0 1782,0 1782,-36"/>
<text text-anchor="middle" x="1755" y="-15.5" font-family="Times,serif" font-size="10.00">0.00</text>
</g>
<!-- 139972386690816&#45;&gt;139972205504768 -->
<g id="edge37" class="edge">
<title>139972386690816&#45;&gt;139972205504768</title>
<path fill="none" stroke="black" d="M1755,-71.7C1755,-63.98 1755,-54.71 1755,-46.11"/>
<polygon fill="black" stroke="black" points="1758.5,-46.1 1755,-36.1 1751.5,-46.1 1758.5,-46.1"/>
</g>
<!-- 139972209343488 -->
<g id="node39" class="node">
<title>139972209343488</title>
<polygon fill="#e0ffe0" stroke="black" points="1854,-36 1800,-36 1800,0 1854,0 1854,-36"/>
<text text-anchor="middle" x="1827" y="-15.5" font-family="Times,serif" font-size="10.00">0.00</text>
</g>
<!-- 139972386690816&#45;&gt;139972209343488 -->
<g id="edge38" class="edge">
<title>139972386690816&#45;&gt;139972209343488</title>
<path fill="none" stroke="black" d="M1772.8,-71.7C1781.6,-63.14 1792.38,-52.66 1802,-43.3"/>
<polygon fill="black" stroke="black" points="1804.68,-45.58 1809.41,-36.1 1799.8,-40.57 1804.68,-45.58"/>
</g>
<!-- 139972396628032 -->
<g id="node40" class="node">
<title>139972396628032</title>
<polygon fill="#e0ffe0" stroke="black" points="1926,-36 1872,-36 1872,0 1926,0 1926,-36"/>
<text text-anchor="middle" x="1899" y="-15.5" font-family="Times,serif" font-size="10.00">0.00</text>
</g>
<!-- 139972386690816&#45;&gt;139972396628032 -->
<g id="edge39" class="edge">
<title>139972386690816&#45;&gt;139972396628032</title>
<path fill="none" stroke="black" d="M1782.09,-75.83C1804.77,-64.81 1837.36,-48.97 1862.37,-36.81"/>
<polygon fill="black" stroke="black" points="1864.08,-39.87 1871.55,-32.35 1861.02,-33.57 1864.08,-39.87"/>
</g>
<!-- 139972191781248 -->
<g id="node41" class="node">
<title>139972191781248</title>
<polygon fill="#9bcf9b" stroke="black" points="2106,-252 2052,-252 2052,-216 2106,-216 2106,-252"/>
<text text-anchor="middle" x="2079" y="-231.5" font-family="Times,serif" font-size="10.00">0.31</text>
</g>
<!-- 139972385126400 -->
<g id="node42" class="node">
<title>139972385126400</title>
<polygon fill="#006400" stroke="black" points="1962,-180 1908,-180 1908,-144 1962,-144 1962,-180"/>
<text text-anchor="middle" x="1935" y="-159.5" font-family="Times,serif" font-size="10.00">1.00</text>
</g>
<!-- 139972191781248&#45;&gt;139972385126400 -->
<g id="edge40" class="edge">
<title>139972191781248&#45;&gt;139972385126400</title>
<path fill="none" stroke="black" d="M2051.91,-219.83C2029.23,-208.81 1996.64,-192.97 1971.63,-180.81"/>
<polygon fill="black" stroke="black" points="1972.98,-177.57 1962.45,-176.35 1969.92,-183.87 1972.98,-177.57"/>
</g>
<!-- 139972207817216 -->
<g id="node46" class="node">
<title>139972207817216</title>
<polygon fill="#95cb95" stroke="black" points="2106,-180 2052,-180 2052,-144 2106,-144 2106,-180"/>
<text text-anchor="middle" x="2079" y="-159.5" font-family="Times,serif" font-size="10.00">0.33</text>
</g>
<!-- 139972191781248&#45;&gt;139972207817216 -->
<g id="edge41" class="edge">
<title>139972191781248&#45;&gt;139972207817216</title>
<path fill="none" stroke="black" d="M2079,-215.7C2079,-207.98 2079,-198.71 2079,-190.11"/>
<polygon fill="black" stroke="black" points="2082.5,-190.1 2079,-180.1 2075.5,-190.1 2082.5,-190.1"/>
</g>
<!-- 139972371816832 -->
<g id="node53" class="node">
<title>139972371816832</title>
<polygon fill="#e0ffe0" stroke="black" points="2178,-180 2124,-180 2124,-144 2178,-144 2178,-180"/>
<text text-anchor="middle" x="2151" y="-159.5" font-family="Times,serif" font-size="10.00">0.00</text>
</g>
<!-- 139972191781248&#45;&gt;139972371816832 -->
<g id="edge42" class="edge">
<title>139972191781248&#45;&gt;139972371816832</title>
<path fill="none" stroke="black" d="M2096.8,-215.7C2105.6,-207.14 2116.38,-196.66 2126,-187.3"/>
<polygon fill="black" stroke="black" points="2128.68,-189.58 2133.41,-180.1 2123.8,-184.57 2128.68,-189.58"/>
</g>
<!-- 139961373470592 -->
<g id="node43" class="node">
<title>139961373470592</title>
<polygon fill="#006400" stroke="black" points="1854,-108 1800,-108 1800,-72 1854,-72 1854,-108"/>
<text text-anchor="middle" x="1827" y="-87.5" font-family="Times,serif" font-size="10.00">1.00</text>
</g>
<!-- 139972385126400&#45;&gt;139961373470592 -->
<g id="edge43" class="edge">
<title>139972385126400&#45;&gt;139961373470592</title>
<path fill="none" stroke="black" d="M1908.58,-143.88C1894.59,-134.81 1877.22,-123.55 1862.11,-113.76"/>
<polygon fill="black" stroke="black" points="1863.82,-110.69 1853.52,-108.19 1860.01,-116.57 1863.82,-110.69"/>
</g>
<!-- 139972906678912 -->
<g id="node44" class="node">
<title>139972906678912</title>
<polygon fill="#006400" stroke="black" points="1926,-108 1872,-108 1872,-72 1926,-72 1926,-108"/>
<text text-anchor="middle" x="1899" y="-87.5" font-family="Times,serif" font-size="10.00">1.00</text>
</g>
<!-- 139972385126400&#45;&gt;139972906678912 -->
<g id="edge45" class="edge">
<title>139972385126400&#45;&gt;139972906678912</title>
<path fill="none" stroke="black" d="M1926.1,-143.7C1922,-135.73 1917.05,-126.1 1912.51,-117.26"/>
<polygon fill="black" stroke="black" points="1915.48,-115.4 1907.8,-108.1 1909.26,-118.6 1915.48,-115.4"/>
</g>
<!-- 139972393484416 -->
<g id="node45" class="node">
<title>139972393484416</title>
<polygon fill="#006400" stroke="black" points="1998,-108 1944,-108 1944,-72 1998,-72 1998,-108"/>
<text text-anchor="middle" x="1971" y="-87.5" font-family="Times,serif" font-size="10.00">1.00</text>
</g>
<!-- 139972385126400&#45;&gt;139972393484416 -->
<g id="edge44" class="edge">
<title>139972385126400&#45;&gt;139972393484416</title>
<path fill="none" stroke="black" d="M1943.9,-143.7C1948,-135.73 1952.95,-126.1 1957.49,-117.26"/>
<polygon fill="black" stroke="black" points="1960.74,-118.6 1962.2,-108.1 1954.52,-115.4 1960.74,-118.6"/>
</g>
<!-- 139972405601600 -->
<g id="node47" class="node">
<title>139972405601600</title>
<polygon fill="#e0ffe0" stroke="black" points="2070,-108 2016,-108 2016,-72 2070,-72 2070,-108"/>
<text text-anchor="middle" x="2043" y="-87.5" font-family="Times,serif" font-size="10.00">0.00</text>
</g>
<!-- 139972207817216&#45;&gt;139972405601600 -->
<g id="edge46" class="edge">
<title>139972207817216&#45;&gt;139972405601600</title>
<path fill="none" stroke="black" d="M2070.1,-143.7C2066,-135.73 2061.05,-126.1 2056.51,-117.26"/>
<polygon fill="black" stroke="black" points="2059.48,-115.4 2051.8,-108.1 2053.26,-118.6 2059.48,-115.4"/>
</g>
<!-- 139972205171136 -->
<g id="node51" class="node">
<title>139972205171136</title>
<polygon fill="#006400" stroke="black" points="2142,-108 2088,-108 2088,-72 2142,-72 2142,-108"/>
<text text-anchor="middle" x="2115" y="-87.5" font-family="Times,serif" font-size="10.00">1.00</text>
</g>
<!-- 139972207817216&#45;&gt;139972205171136 -->
<g id="edge48" class="edge">
<title>139972207817216&#45;&gt;139972205171136</title>
<path fill="none" stroke="black" d="M2087.9,-143.7C2092,-135.73 2096.95,-126.1 2101.49,-117.26"/>
<polygon fill="black" stroke="black" points="2104.74,-118.6 2106.2,-108.1 2098.52,-115.4 2104.74,-118.6"/>
</g>
<!-- 139972380445504 -->
<g id="node52" class="node">
<title>139972380445504</title>
<polygon fill="#e0ffe0" stroke="black" points="2214,-108 2160,-108 2160,-72 2214,-72 2214,-108"/>
<text text-anchor="middle" x="2187" y="-87.5" font-family="Times,serif" font-size="10.00">0.00</text>
</g>
<!-- 139972207817216&#45;&gt;139972380445504 -->
<g id="edge47" class="edge">
<title>139972207817216&#45;&gt;139972380445504</title>
<path fill="none" stroke="black" d="M2105.42,-143.88C2119.41,-134.81 2136.78,-123.55 2151.89,-113.76"/>
<polygon fill="black" stroke="black" points="2153.99,-116.57 2160.48,-108.19 2150.18,-110.69 2153.99,-116.57"/>
</g>
<!-- 139972382607040 -->
<g id="node48" class="node">
<title>139972382607040</title>
<polygon fill="#e0ffe0" stroke="black" points="1998,-36 1944,-36 1944,0 1998,0 1998,-36"/>
<text text-anchor="middle" x="1971" y="-15.5" font-family="Times,serif" font-size="10.00">0.00</text>
</g>
<!-- 139972405601600&#45;&gt;139972382607040 -->
<g id="edge49" class="edge">
<title>139972405601600&#45;&gt;139972382607040</title>
<path fill="none" stroke="black" d="M2025.2,-71.7C2016.4,-63.14 2005.62,-52.66 1996,-43.3"/>
<polygon fill="black" stroke="black" points="1998.2,-40.57 1988.59,-36.1 1993.32,-45.58 1998.2,-40.57"/>
</g>
<!-- 139972350625152 -->
<g id="node49" class="node">
<title>139972350625152</title>
<polygon fill="#e0ffe0" stroke="black" points="2070,-36 2016,-36 2016,0 2070,0 2070,-36"/>
<text text-anchor="middle" x="2043" y="-15.5" font-family="Times,serif" font-size="10.00">0.00</text>
</g>
<!-- 139972405601600&#45;&gt;139972350625152 -->
<g id="edge50" class="edge">
<title>139972405601600&#45;&gt;139972350625152</title>
<path fill="none" stroke="black" d="M2043,-71.7C2043,-63.98 2043,-54.71 2043,-46.11"/>
<polygon fill="black" stroke="black" points="2046.5,-46.1 2043,-36.1 2039.5,-46.1 2046.5,-46.1"/>
</g>
<!-- 139972412831168 -->
<g id="node50" class="node">
<title>139972412831168</title>
<polygon fill="#e0ffe0" stroke="black" points="2142,-36 2088,-36 2088,0 2142,0 2142,-36"/>
<text text-anchor="middle" x="2115" y="-15.5" font-family="Times,serif" font-size="10.00">0.00</text>
</g>
<!-- 139972405601600&#45;&gt;139972412831168 -->
<g id="edge51" class="edge">
<title>139972405601600&#45;&gt;139972412831168</title>
<path fill="none" stroke="black" d="M2060.8,-71.7C2069.6,-63.14 2080.38,-52.66 2090,-43.3"/>
<polygon fill="black" stroke="black" points="2092.68,-45.58 2097.41,-36.1 2087.8,-40.57 2092.68,-45.58"/>
</g>
<!-- 139972906115136 -->
<g id="node54" class="node">
<title>139972906115136</title>
<polygon fill="#006400" stroke="black" points="2502,-252 2448,-252 2448,-216 2502,-216 2502,-252"/>
<text text-anchor="middle" x="2475" y="-231.5" font-family="Times,serif" font-size="10.00">1.00</text>
</g>
<!-- 139972371742400 -->
<g id="node55" class="node">
<title>139972371742400</title>
<polygon fill="#e0ffe0" stroke="black" points="2394,-180 2340,-180 2340,-144 2394,-144 2394,-180"/>
<text text-anchor="middle" x="2367" y="-159.5" font-family="Times,serif" font-size="10.00">0.00</text>
</g>
<!-- 139972906115136&#45;&gt;139972371742400 -->
<g id="edge52" class="edge">
<title>139972906115136&#45;&gt;139972371742400</title>
<path fill="none" stroke="black" d="M2448.58,-215.88C2434.59,-206.81 2417.22,-195.55 2402.11,-185.76"/>
<polygon fill="black" stroke="black" points="2403.82,-182.69 2393.52,-180.19 2400.01,-188.57 2403.82,-182.69"/>
</g>
<!-- 139972398387392 -->
<g id="node62" class="node">
<title>139972398387392</title>
<polygon fill="#006400" stroke="black" points="2538,-180 2484,-180 2484,-144 2538,-144 2538,-180"/>
<text text-anchor="middle" x="2511" y="-159.5" font-family="Times,serif" font-size="10.00">1.00</text>
</g>
<!-- 139972906115136&#45;&gt;139972398387392 -->
<g id="edge54" class="edge">
<title>139972906115136&#45;&gt;139972398387392</title>
<path fill="none" stroke="black" d="M2483.9,-215.7C2488,-207.73 2492.95,-198.1 2497.49,-189.26"/>
<polygon fill="black" stroke="black" points="2500.74,-190.6 2502.2,-180.1 2494.52,-187.4 2500.74,-190.6"/>
</g>
<!-- 139972390227392 -->
<g id="node66" class="node">
<title>139972390227392</title>
<polygon fill="#e0ffe0" stroke="black" points="2754,-180 2700,-180 2700,-144 2754,-144 2754,-180"/>
<text text-anchor="middle" x="2727" y="-159.5" font-family="Times,serif" font-size="10.00">0.00</text>
</g>
<!-- 139972906115136&#45;&gt;139972390227392 -->
<g id="edge53" class="edge">
<title>139972906115136&#45;&gt;139972390227392</title>
<path fill="none" stroke="black" d="M2502.45,-225.38C2548.01,-212.72 2639.29,-187.36 2690.32,-173.19"/>
<polygon fill="black" stroke="black" points="2691.27,-176.56 2699.97,-170.51 2689.4,-169.81 2691.27,-176.56"/>
</g>
<!-- 139972211987264 -->
<g id="node56" class="node">
<title>139972211987264</title>
<polygon fill="#006400" stroke="black" points="2286,-108 2232,-108 2232,-72 2286,-72 2286,-108"/>
<text text-anchor="middle" x="2259" y="-87.5" font-family="Times,serif" font-size="10.00">1.00</text>
</g>
<!-- 139972371742400&#45;&gt;139972211987264 -->
<g id="edge55" class="edge">
<title>139972371742400&#45;&gt;139972211987264</title>
<path fill="none" stroke="black" d="M2340.58,-143.88C2326.59,-134.81 2309.22,-123.55 2294.11,-113.76"/>
<polygon fill="black" stroke="black" points="2295.82,-110.69 2285.52,-108.19 2292.01,-116.57 2295.82,-110.69"/>
</g>
<!-- 139972191793024 -->
<g id="node57" class="node">
<title>139972191793024</title>
<polygon fill="#e0ffe0" stroke="black" points="2358,-108 2304,-108 2304,-72 2358,-72 2358,-108"/>
<text text-anchor="middle" x="2331" y="-87.5" font-family="Times,serif" font-size="10.00">0.00</text>
</g>
<!-- 139972371742400&#45;&gt;139972191793024 -->
<g id="edge56" class="edge">
<title>139972371742400&#45;&gt;139972191793024</title>
<path fill="none" stroke="black" d="M2358.1,-143.7C2354,-135.73 2349.05,-126.1 2344.51,-117.26"/>
<polygon fill="black" stroke="black" points="2347.48,-115.4 2339.8,-108.1 2341.26,-118.6 2347.48,-115.4"/>
</g>
<!-- 139972397981632 -->
<g id="node61" class="node">
<title>139972397981632</title>
<polygon fill="#006400" stroke="black" points="2430,-108 2376,-108 2376,-72 2430,-72 2430,-108"/>
<text text-anchor="middle" x="2403" y="-87.5" font-family="Times,serif" font-size="10.00">1.00</text>
</g>
<!-- 139972371742400&#45;&gt;139972397981632 -->
<g id="edge57" class="edge">
<title>139972371742400&#45;&gt;139972397981632</title>
<path fill="none" stroke="black" d="M2375.9,-143.7C2380,-135.73 2384.95,-126.1 2389.49,-117.26"/>
<polygon fill="black" stroke="black" points="2392.74,-118.6 2394.2,-108.1 2386.52,-115.4 2392.74,-118.6"/>
</g>
<!-- 139972191785280 -->
<g id="node58" class="node">
<title>139972191785280</title>
<polygon fill="#e0ffe0" stroke="black" points="2286,-36 2232,-36 2232,0 2286,0 2286,-36"/>
<text text-anchor="middle" x="2259" y="-15.5" font-family="Times,serif" font-size="10.00">0.00</text>
</g>
<!-- 139972191793024&#45;&gt;139972191785280 -->
<g id="edge58" class="edge">
<title>139972191793024&#45;&gt;139972191785280</title>
<path fill="none" stroke="black" d="M2313.2,-71.7C2304.4,-63.14 2293.62,-52.66 2284,-43.3"/>
<polygon fill="black" stroke="black" points="2286.2,-40.57 2276.59,-36.1 2281.32,-45.58 2286.2,-40.57"/>
</g>
<!-- 139972392506560 -->
<g id="node59" class="node">
<title>139972392506560</title>
<polygon fill="#e0ffe0" stroke="black" points="2358,-36 2304,-36 2304,0 2358,0 2358,-36"/>
<text text-anchor="middle" x="2331" y="-15.5" font-family="Times,serif" font-size="10.00">0.00</text>
</g>
<!-- 139972191793024&#45;&gt;139972392506560 -->
<g id="edge60" class="edge">
<title>139972191793024&#45;&gt;139972392506560</title>
<path fill="none" stroke="black" d="M2331,-71.7C2331,-63.98 2331,-54.71 2331,-46.11"/>
<polygon fill="black" stroke="black" points="2334.5,-46.1 2331,-36.1 2327.5,-46.1 2334.5,-46.1"/>
</g>
<!-- 139972359349248 -->
<g id="node60" class="node">
<title>139972359349248</title>
<polygon fill="#e0ffe0" stroke="black" points="2430,-36 2376,-36 2376,0 2430,0 2430,-36"/>
<text text-anchor="middle" x="2403" y="-15.5" font-family="Times,serif" font-size="10.00">0.00</text>
</g>
<!-- 139972191793024&#45;&gt;139972359349248 -->
<g id="edge59" class="edge">
<title>139972191793024&#45;&gt;139972359349248</title>
<path fill="none" stroke="black" d="M2348.8,-71.7C2357.6,-63.14 2368.38,-52.66 2378,-43.3"/>
<polygon fill="black" stroke="black" points="2380.68,-45.58 2385.41,-36.1 2375.8,-40.57 2380.68,-45.58"/>
</g>
<!-- 139972202815808 -->
<g id="node63" class="node">
<title>139972202815808</title>
<polygon fill="#006400" stroke="black" points="2502,-108 2448,-108 2448,-72 2502,-72 2502,-108"/>
<text text-anchor="middle" x="2475" y="-87.5" font-family="Times,serif" font-size="10.00">1.00</text>
</g>
<!-- 139972398387392&#45;&gt;139972202815808 -->
<g id="edge61" class="edge">
<title>139972398387392&#45;&gt;139972202815808</title>
<path fill="none" stroke="black" d="M2502.1,-143.7C2498,-135.73 2493.05,-126.1 2488.51,-117.26"/>
<polygon fill="black" stroke="black" points="2491.48,-115.4 2483.8,-108.1 2485.26,-118.6 2491.48,-115.4"/>
</g>
<!-- 139972390323072 -->
<g id="node64" class="node">
<title>139972390323072</title>
<polygon fill="#006400" stroke="black" points="2574,-108 2520,-108 2520,-72 2574,-72 2574,-108"/>
<text text-anchor="middle" x="2547" y="-87.5" font-family="Times,serif" font-size="10.00">1.00</text>
</g>
<!-- 139972398387392&#45;&gt;139972390323072 -->
<g id="edge62" class="edge">
<title>139972398387392&#45;&gt;139972390323072</title>
<path fill="none" stroke="black" d="M2519.9,-143.7C2524,-135.73 2528.95,-126.1 2533.49,-117.26"/>
<polygon fill="black" stroke="black" points="2536.74,-118.6 2538.2,-108.1 2530.52,-115.4 2536.74,-118.6"/>
</g>
<!-- 139972438160512 -->
<g id="node65" class="node">
<title>139972438160512</title>
<polygon fill="#006400" stroke="black" points="2646,-108 2592,-108 2592,-72 2646,-72 2646,-108"/>
<text text-anchor="middle" x="2619" y="-87.5" font-family="Times,serif" font-size="10.00">1.00</text>
</g>
<!-- 139972398387392&#45;&gt;139972438160512 -->
<g id="edge63" class="edge">
<title>139972398387392&#45;&gt;139972438160512</title>
<path fill="none" stroke="black" d="M2537.42,-143.88C2551.41,-134.81 2568.78,-123.55 2583.89,-113.76"/>
<polygon fill="black" stroke="black" points="2585.99,-116.57 2592.48,-108.19 2582.18,-110.69 2585.99,-116.57"/>
</g>
<!-- 139972373436224 -->
<g id="node67" class="node">
<title>139972373436224</title>
<polygon fill="#e0ffe0" stroke="black" points="2718,-108 2664,-108 2664,-72 2718,-72 2718,-108"/>
<text text-anchor="middle" x="2691" y="-87.5" font-family="Times,serif" font-size="10.00">0.00</text>
</g>
<!-- 139972390227392&#45;&gt;139972373436224 -->
<g id="edge64" class="edge">
<title>139972390227392&#45;&gt;139972373436224</title>
<path fill="none" stroke="black" d="M2718.1,-143.7C2714,-135.73 2709.05,-126.1 2704.51,-117.26"/>
<polygon fill="black" stroke="black" points="2707.48,-115.4 2699.8,-108.1 2701.26,-118.6 2707.48,-115.4"/>
</g>
<!-- 139972387378432 -->
<g id="node71" class="node">
<title>139972387378432</title>
<polygon fill="#006400" stroke="black" points="2790,-108 2736,-108 2736,-72 2790,-72 2790,-108"/>
<text text-anchor="middle" x="2763" y="-87.5" font-family="Times,serif" font-size="10.00">1.00</text>
</g>
<!-- 139972390227392&#45;&gt;139972387378432 -->
<g id="edge65" class="edge">
<title>139972390227392&#45;&gt;139972387378432</title>
<path fill="none" stroke="black" d="M2735.9,-143.7C2740,-135.73 2744.95,-126.1 2749.49,-117.26"/>
<polygon fill="black" stroke="black" points="2752.74,-118.6 2754.2,-108.1 2746.52,-115.4 2752.74,-118.6"/>
</g>
<!-- 139972418517888 -->
<g id="node75" class="node">
<title>139972418517888</title>
<polygon fill="#006400" stroke="black" points="2862,-108 2808,-108 2808,-72 2862,-72 2862,-108"/>
<text text-anchor="middle" x="2835" y="-87.5" font-family="Times,serif" font-size="10.00">1.00</text>
</g>
<!-- 139972390227392&#45;&gt;139972418517888 -->
<g id="edge66" class="edge">
<title>139972390227392&#45;&gt;139972418517888</title>
<path fill="none" stroke="black" d="M2753.42,-143.88C2767.41,-134.81 2784.78,-123.55 2799.89,-113.76"/>
<polygon fill="black" stroke="black" points="2801.99,-116.57 2808.48,-108.19 2798.18,-110.69 2801.99,-116.57"/>
</g>
<!-- 139972211985728 -->
<g id="node68" class="node">
<title>139972211985728</title>
<polygon fill="#e0ffe0" stroke="black" points="2574,-36 2520,-36 2520,0 2574,0 2574,-36"/>
<text text-anchor="middle" x="2547" y="-15.5" font-family="Times,serif" font-size="10.00">0.00</text>
</g>
<!-- 139972373436224&#45;&gt;139972211985728 -->
<g id="edge67" class="edge">
<title>139972373436224&#45;&gt;139972211985728</title>
<path fill="none" stroke="black" d="M2663.91,-75.83C2641.23,-64.81 2608.64,-48.97 2583.63,-36.81"/>
<polygon fill="black" stroke="black" points="2584.98,-33.57 2574.45,-32.35 2581.92,-39.87 2584.98,-33.57"/>
</g>
<!-- 139972417476544 -->
<g id="node69" class="node">
<title>139972417476544</title>
<polygon fill="#e0ffe0" stroke="black" points="2646,-36 2592,-36 2592,0 2646,0 2646,-36"/>
<text text-anchor="middle" x="2619" y="-15.5" font-family="Times,serif" font-size="10.00">0.00</text>
</g>
<!-- 139972373436224&#45;&gt;139972417476544 -->
<g id="edge69" class="edge">
<title>139972373436224&#45;&gt;139972417476544</title>
<path fill="none" stroke="black" d="M2673.2,-71.7C2664.4,-63.14 2653.62,-52.66 2644,-43.3"/>
<polygon fill="black" stroke="black" points="2646.2,-40.57 2636.59,-36.1 2641.32,-45.58 2646.2,-40.57"/>
</g>
<!-- 139972381282048 -->
<g id="node70" class="node">
<title>139972381282048</title>
<polygon fill="#e0ffe0" stroke="black" points="2718,-36 2664,-36 2664,0 2718,0 2718,-36"/>
<text text-anchor="middle" x="2691" y="-15.5" font-family="Times,serif" font-size="10.00">0.00</text>
</g>
<!-- 139972373436224&#45;&gt;139972381282048 -->
<g id="edge68" class="edge">
<title>139972373436224&#45;&gt;139972381282048</title>
<path fill="none" stroke="black" d="M2691,-71.7C2691,-63.98 2691,-54.71 2691,-46.11"/>
<polygon fill="black" stroke="black" points="2694.5,-46.1 2691,-36.1 2687.5,-46.1 2694.5,-46.1"/>
</g>
<!-- 139972183248768 -->
<g id="node72" class="node">
<title>139972183248768</title>
<polygon fill="#006400" stroke="black" points="2790,-36 2736,-36 2736,0 2790,0 2790,-36"/>
<text text-anchor="middle" x="2763" y="-15.5" font-family="Times,serif" font-size="10.00">1.00</text>
</g>
<!-- 139972387378432&#45;&gt;139972183248768 -->
<g id="edge70" class="edge">
<title>139972387378432&#45;&gt;139972183248768</title>
<path fill="none" stroke="black" d="M2763,-71.7C2763,-63.98 2763,-54.71 2763,-46.11"/>
<polygon fill="black" stroke="black" points="2766.5,-46.1 2763,-36.1 2759.5,-46.1 2766.5,-46.1"/>
</g>
<!-- 139972347900352 -->
<g id="node73" class="node">
<title>139972347900352</title>
<polygon fill="#006400" stroke="black" points="2862,-36 2808,-36 2808,0 2862,0 2862,-36"/>
<text text-anchor="middle" x="2835" y="-15.5" font-family="Times,serif" font-size="10.00">1.00</text>
</g>
<!-- 139972387378432&#45;&gt;139972347900352 -->
<g id="edge72" class="edge">
<title>139972387378432&#45;&gt;139972347900352</title>
<path fill="none" stroke="black" d="M2780.8,-71.7C2789.6,-63.14 2800.38,-52.66 2810,-43.3"/>
<polygon fill="black" stroke="black" points="2812.68,-45.58 2817.41,-36.1 2807.8,-40.57 2812.68,-45.58"/>
</g>
<!-- 139972398321408 -->
<g id="node74" class="node">
<title>139972398321408</title>
<polygon fill="#006400" stroke="black" points="2934,-36 2880,-36 2880,0 2934,0 2934,-36"/>
<text text-anchor="middle" x="2907" y="-15.5" font-family="Times,serif" font-size="10.00">1.00</text>
</g>
<!-- 139972387378432&#45;&gt;139972398321408 -->
<g id="edge71" class="edge">
<title>139972387378432&#45;&gt;139972398321408</title>
<path fill="none" stroke="black" d="M2790.09,-75.83C2812.77,-64.81 2845.36,-48.97 2870.37,-36.81"/>
<polygon fill="black" stroke="black" points="2872.08,-39.87 2879.55,-32.35 2869.02,-33.57 2872.08,-39.87"/>
</g>
<!-- 139972385117312 -->
<g id="node76" class="node">
<title>139972385117312</title>
<polygon fill="#6eb06e" stroke="black" points="2106,-324 2052,-324 2052,-288 2106,-288 2106,-324"/>
<text text-anchor="middle" x="2079" y="-303.5" font-family="Times,serif" font-size="10.00">0.51</text>
</g>
<!-- 139972385117312&#45;&gt;139972197606336 -->
<g id="edge73" class="edge">
<title>139972385117312&#45;&gt;139972197606336</title>
<path fill="none" stroke="black" d="M2051.64,-302.83C1923.42,-292.65 1382.12,-249.69 1234.38,-237.97"/>
<polygon fill="black" stroke="black" points="1234.29,-234.45 1224.04,-237.15 1233.74,-241.43 1234.29,-234.45"/>
</g>
<!-- 139972385117312&#45;&gt;139972191781248 -->
<g id="edge75" class="edge">
<title>139972385117312&#45;&gt;139972191781248</title>
<path fill="none" stroke="black" d="M2079,-287.7C2079,-279.98 2079,-270.71 2079,-262.11"/>
<polygon fill="black" stroke="black" points="2082.5,-262.1 2079,-252.1 2075.5,-262.1 2082.5,-262.1"/>
</g>
<!-- 139972385117312&#45;&gt;139972906115136 -->
<g id="edge74" class="edge">
<title>139972385117312&#45;&gt;139972906115136</title>
<path fill="none" stroke="black" d="M2106.22,-300.19C2175.54,-287.94 2358.82,-255.54 2437.86,-241.57"/>
<polygon fill="black" stroke="black" points="2438.62,-244.99 2447.85,-239.8 2437.4,-238.09 2438.62,-244.99"/>
</g>
</g>
</svg>
