<?xml version="1.0" encoding="UTF-8" standalone="no"?>
<!DOCTYPE svg PUBLIC "-//W3C//DTD SVG 1.1//EN"
 "http://www.w3.org/Graphics/SVG/1.1/DTD/svg11.dtd">
<!-- Generated by graphviz version 2.43.0 (0)
 -->
<!-- Title: %3 Pages: 1 -->
<svg width="3212pt" height="332pt"
 viewBox="0.00 0.00 3212.00 332.00" xmlns="http://www.w3.org/2000/svg" xmlns:xlink="http://www.w3.org/1999/xlink">
<g id="graph0" class="graph" transform="scale(1 1) rotate(0) translate(4 328)">
<title>%3</title>
<polygon fill="white" stroke="transparent" points="-4,4 -4,-328 3208,-328 3208,4 -4,4"/>
<!-- 139972360928128 -->
<g id="node1" class="node">
<title>139972360928128</title>
<polygon fill="#e0ffe0" stroke="black" points="1278,-252 1224,-252 1224,-216 1278,-216 1278,-252"/>
<text text-anchor="middle" x="1251" y="-231.5" font-family="Times,serif" font-size="10.00">0.00</text>
</g>
<!-- 139972360097792 -->
<g id="node2" class="node">
<title>139972360097792</title>
<polygon fill="#e0ffe0" stroke="black" points="450,-180 396,-180 396,-144 450,-144 450,-180"/>
<text text-anchor="middle" x="423" y="-159.5" font-family="Times,serif" font-size="10.00">0.00</text>
</g>
<!-- 139972360928128&#45;&gt;139972360097792 -->
<g id="edge1" class="edge">
<title>139972360928128&#45;&gt;139972360097792</title>
<path fill="none" stroke="black" d="M1223.92,-230.71C1101.82,-220.39 602.3,-178.16 460.62,-166.18"/>
<polygon fill="black" stroke="black" points="460.55,-162.66 450.29,-165.31 459.96,-169.64 460.55,-162.66"/>
</g>
<!-- 139972380311168 -->
<g id="node15" class="node">
<title>139972380311168</title>
<polygon fill="#006400" stroke="black" points="1116,-180 1062,-180 1062,-144 1116,-144 1116,-180"/>
<text text-anchor="middle" x="1089" y="-159.5" font-family="Times,serif" font-size="10.00">1.00</text>
</g>
<!-- 139972360928128&#45;&gt;139972380311168 -->
<g id="edge3" class="edge">
<title>139972360928128&#45;&gt;139972380311168</title>
<path fill="none" stroke="black" d="M1223.88,-221.28C1196.9,-209.62 1155.32,-191.65 1125.45,-178.75"/>
<polygon fill="black" stroke="black" points="1126.77,-175.51 1116.2,-174.75 1124,-181.93 1126.77,-175.51"/>
</g>
<!-- 139972209270848 -->
<g id="node28" class="node">
<title>139972209270848</title>
<polygon fill="#4a974a" stroke="black" points="1530,-180 1476,-180 1476,-144 1530,-144 1530,-180"/>
<text text-anchor="middle" x="1503" y="-159.5" font-family="Times,serif" font-size="10.00">0.67</text>
</g>
<!-- 139972360928128&#45;&gt;139972209270848 -->
<g id="edge2" class="edge">
<title>139972360928128&#45;&gt;139972209270848</title>
<path fill="none" stroke="black" d="M1278.45,-225.38C1324.01,-212.72 1415.29,-187.36 1466.32,-173.19"/>
<polygon fill="black" stroke="black" points="1467.27,-176.56 1475.97,-170.51 1465.4,-169.81 1467.27,-176.56"/>
</g>
<!-- 139972385345088 -->
<g id="node3" class="node">
<title>139972385345088</title>
<polygon fill="#e0ffe0" stroke="black" points="162,-108 108,-108 108,-72 162,-72 162,-108"/>
<text text-anchor="middle" x="135" y="-87.5" font-family="Times,serif" font-size="10.00">0.00</text>
</g>
<!-- 139972360097792&#45;&gt;139972385345088 -->
<g id="edge4" class="edge">
<title>139972360097792&#45;&gt;139972385345088</title>
<path fill="none" stroke="black" d="M395.91,-154.41C344.12,-141.83 231.04,-114.34 172.22,-100.05"/>
<polygon fill="black" stroke="black" points="172.78,-96.58 162.23,-97.62 171.12,-103.38 172.78,-96.58"/>
</g>
<!-- 139972202980160 -->
<g id="node7" class="node">
<title>139972202980160</title>
<polygon fill="#e0ffe0" stroke="black" points="378,-108 324,-108 324,-72 378,-72 378,-108"/>
<text text-anchor="middle" x="351" y="-87.5" font-family="Times,serif" font-size="10.00">0.00</text>
</g>
<!-- 139972360097792&#45;&gt;139972202980160 -->
<g id="edge5" class="edge">
<title>139972360097792&#45;&gt;139972202980160</title>
<path fill="none" stroke="black" d="M405.2,-143.7C396.4,-135.14 385.62,-124.66 376,-115.3"/>
<polygon fill="black" stroke="black" points="378.2,-112.57 368.59,-108.1 373.32,-117.58 378.2,-112.57"/>
</g>
<!-- 139972359694528 -->
<g id="node11" class="node">
<title>139972359694528</title>
<polygon fill="#e0ffe0" stroke="black" points="522,-108 468,-108 468,-72 522,-72 522,-108"/>
<text text-anchor="middle" x="495" y="-87.5" font-family="Times,serif" font-size="10.00">0.00</text>
</g>
<!-- 139972360097792&#45;&gt;139972359694528 -->
<g id="edge6" class="edge">
<title>139972360097792&#45;&gt;139972359694528</title>
<path fill="none" stroke="black" d="M440.8,-143.7C449.6,-135.14 460.38,-124.66 470,-115.3"/>
<polygon fill="black" stroke="black" points="472.68,-117.58 477.41,-108.1 467.8,-112.57 472.68,-117.58"/>
</g>
<!-- 139972433130496 -->
<g id="node4" class="node">
<title>139972433130496</title>
<polygon fill="#e0ffe0" stroke="black" points="54,-36 0,-36 0,0 54,0 54,-36"/>
<text text-anchor="middle" x="27" y="-15.5" font-family="Times,serif" font-size="10.00">0.00</text>
</g>
<!-- 139972385345088&#45;&gt;139972433130496 -->
<g id="edge7" class="edge">
<title>139972385345088&#45;&gt;139972433130496</title>
<path fill="none" stroke="black" d="M108.58,-71.88C94.59,-62.81 77.22,-51.55 62.11,-41.76"/>
<polygon fill="black" stroke="black" points="63.82,-38.69 53.52,-36.19 60.01,-44.57 63.82,-38.69"/>
</g>
<!-- 139972176778816 -->
<g id="node5" class="node">
<title>139972176778816</title>
<polygon fill="#e0ffe0" stroke="black" points="126,-36 72,-36 72,0 126,0 126,-36"/>
<text text-anchor="middle" x="99" y="-15.5" font-family="Times,serif" font-size="10.00">0.00</text>
</g>
<!-- 139972385345088&#45;&gt;139972176778816 -->
<g id="edge8" class="edge">
<title>139972385345088&#45;&gt;139972176778816</title>
<path fill="none" stroke="black" d="M126.1,-71.7C122,-63.73 117.05,-54.1 112.51,-45.26"/>
<polygon fill="black" stroke="black" points="115.48,-43.4 107.8,-36.1 109.26,-46.6 115.48,-43.4"/>
</g>
<!-- 139972211558528 -->
<g id="node6" class="node">
<title>139972211558528</title>
<polygon fill="#e0ffe0" stroke="black" points="198,-36 144,-36 144,0 198,0 198,-36"/>
<text text-anchor="middle" x="171" y="-15.5" font-family="Times,serif" font-size="10.00">0.00</text>
</g>
<!-- 139972385345088&#45;&gt;139972211558528 -->
<g id="edge9" class="edge">
<title>139972385345088&#45;&gt;139972211558528</title>
<path fill="none" stroke="black" d="M143.9,-71.7C148,-63.73 152.95,-54.1 157.49,-45.26"/>
<polygon fill="black" stroke="black" points="160.74,-46.6 162.2,-36.1 154.52,-43.4 160.74,-46.6"/>
</g>
<!-- 139972431730496 -->
<g id="node8" class="node">
<title>139972431730496</title>
<polygon fill="#e0ffe0" stroke="black" points="270,-36 216,-36 216,0 270,0 270,-36"/>
<text text-anchor="middle" x="243" y="-15.5" font-family="Times,serif" font-size="10.00">0.00</text>
</g>
<!-- 139972202980160&#45;&gt;139972431730496 -->
<g id="edge10" class="edge">
<title>139972202980160&#45;&gt;139972431730496</title>
<path fill="none" stroke="black" d="M324.58,-71.88C310.59,-62.81 293.22,-51.55 278.11,-41.76"/>
<polygon fill="black" stroke="black" points="279.82,-38.69 269.52,-36.19 276.01,-44.57 279.82,-38.69"/>
</g>
<!-- 139972439414144 -->
<g id="node9" class="node">
<title>139972439414144</title>
<polygon fill="#e0ffe0" stroke="black" points="342,-36 288,-36 288,0 342,0 342,-36"/>
<text text-anchor="middle" x="315" y="-15.5" font-family="Times,serif" font-size="10.00">0.00</text>
</g>
<!-- 139972202980160&#45;&gt;139972439414144 -->
<g id="edge12" class="edge">
<title>139972202980160&#45;&gt;139972439414144</title>
<path fill="none" stroke="black" d="M342.1,-71.7C338,-63.73 333.05,-54.1 328.51,-45.26"/>
<polygon fill="black" stroke="black" points="331.48,-43.4 323.8,-36.1 325.26,-46.6 331.48,-43.4"/>
</g>
<!-- 139972439739456 -->
<g id="node10" class="node">
<title>139972439739456</title>
<polygon fill="#e0ffe0" stroke="black" points="414,-36 360,-36 360,0 414,0 414,-36"/>
<text text-anchor="middle" x="387" y="-15.5" font-family="Times,serif" font-size="10.00">0.00</text>
</g>
<!-- 139972202980160&#45;&gt;139972439739456 -->
<g id="edge11" class="edge">
<title>139972202980160&#45;&gt;139972439739456</title>
<path fill="none" stroke="black" d="M359.9,-71.7C364,-63.73 368.95,-54.1 373.49,-45.26"/>
<polygon fill="black" stroke="black" points="376.74,-46.6 378.2,-36.1 370.52,-43.4 376.74,-46.6"/>
</g>
<!-- 139972381515264 -->
<g id="node12" class="node">
<title>139972381515264</title>
<polygon fill="#e0ffe0" stroke="black" points="486,-36 432,-36 432,0 486,0 486,-36"/>
<text text-anchor="middle" x="459" y="-15.5" font-family="Times,serif" font-size="10.00">0.00</text>
</g>
<!-- 139972359694528&#45;&gt;139972381515264 -->
<g id="edge13" class="edge">
<title>139972359694528&#45;&gt;139972381515264</title>
<path fill="none" stroke="black" d="M486.1,-71.7C482,-63.73 477.05,-54.1 472.51,-45.26"/>
<polygon fill="black" stroke="black" points="475.48,-43.4 467.8,-36.1 469.26,-46.6 475.48,-43.4"/>
</g>
<!-- 139972420878080 -->
<g id="node13" class="node">
<title>139972420878080</title>
<polygon fill="#e0ffe0" stroke="black" points="558,-36 504,-36 504,0 558,0 558,-36"/>
<text text-anchor="middle" x="531" y="-15.5" font-family="Times,serif" font-size="10.00">0.00</text>
</g>
<!-- 139972359694528&#45;&gt;139972420878080 -->
<g id="edge14" class="edge">
<title>139972359694528&#45;&gt;139972420878080</title>
<path fill="none" stroke="black" d="M503.9,-71.7C508,-63.73 512.95,-54.1 517.49,-45.26"/>
<polygon fill="black" stroke="black" points="520.74,-46.6 522.2,-36.1 514.52,-43.4 520.74,-46.6"/>
</g>
<!-- 139972406651456 -->
<g id="node14" class="node">
<title>139972406651456</title>
<polygon fill="#e0ffe0" stroke="black" points="630,-36 576,-36 576,0 630,0 630,-36"/>
<text text-anchor="middle" x="603" y="-15.5" font-family="Times,serif" font-size="10.00">0.00</text>
</g>
<!-- 139972359694528&#45;&gt;139972406651456 -->
<g id="edge15" class="edge">
<title>139972359694528&#45;&gt;139972406651456</title>
<path fill="none" stroke="black" d="M521.42,-71.88C535.41,-62.81 552.78,-51.55 567.89,-41.76"/>
<polygon fill="black" stroke="black" points="569.99,-44.57 576.48,-36.19 566.18,-38.69 569.99,-44.57"/>
</g>
<!-- 139972409280128 -->
<g id="node16" class="node">
<title>139972409280128</title>
<polygon fill="#006400" stroke="black" points="810,-108 756,-108 756,-72 810,-72 810,-108"/>
<text text-anchor="middle" x="783" y="-87.5" font-family="Times,serif" font-size="10.00">1.00</text>
</g>
<!-- 139972380311168&#45;&gt;139972409280128 -->
<g id="edge16" class="edge">
<title>139972380311168&#45;&gt;139972409280128</title>
<path fill="none" stroke="black" d="M1061.84,-154.79C1006.84,-142.2 882.2,-113.69 819.9,-99.44"/>
<polygon fill="black" stroke="black" points="820.62,-96.02 810.09,-97.2 819.06,-102.84 820.62,-96.02"/>
</g>
<!-- 139972411924864 -->
<g id="node20" class="node">
<title>139972411924864</title>
<polygon fill="#006400" stroke="black" points="1062,-108 1008,-108 1008,-72 1062,-72 1062,-108"/>
<text text-anchor="middle" x="1035" y="-87.5" font-family="Times,serif" font-size="10.00">1.00</text>
</g>
<!-- 139972380311168&#45;&gt;139972411924864 -->
<g id="edge18" class="edge">
<title>139972380311168&#45;&gt;139972411924864</title>
<path fill="none" stroke="black" d="M1075.65,-143.7C1069.24,-135.39 1061.44,-125.28 1054.39,-116.14"/>
<polygon fill="black" stroke="black" points="1057.07,-113.88 1048.19,-108.1 1051.53,-118.16 1057.07,-113.88"/>
</g>
<!-- 139972417348416 -->
<g id="node24" class="node">
<title>139972417348416</title>
<polygon fill="#006400" stroke="black" points="1170,-108 1116,-108 1116,-72 1170,-72 1170,-108"/>
<text text-anchor="middle" x="1143" y="-87.5" font-family="Times,serif" font-size="10.00">1.00</text>
</g>
<!-- 139972380311168&#45;&gt;139972417348416 -->
<g id="edge17" class="edge">
<title>139972380311168&#45;&gt;139972417348416</title>
<path fill="none" stroke="black" d="M1102.35,-143.7C1108.76,-135.39 1116.56,-125.28 1123.61,-116.14"/>
<polygon fill="black" stroke="black" points="1126.47,-118.16 1129.81,-108.1 1120.93,-113.88 1126.47,-118.16"/>
</g>
<!-- 139972027982464 -->
<g id="node17" class="node">
<title>139972027982464</title>
<polygon fill="#006400" stroke="black" points="702,-36 648,-36 648,0 702,0 702,-36"/>
<text text-anchor="middle" x="675" y="-15.5" font-family="Times,serif" font-size="10.00">1.00</text>
</g>
<!-- 139972409280128&#45;&gt;139972027982464 -->
<g id="edge19" class="edge">
<title>139972409280128&#45;&gt;139972027982464</title>
<path fill="none" stroke="black" d="M756.58,-71.88C742.59,-62.81 725.22,-51.55 710.11,-41.76"/>
<polygon fill="black" stroke="black" points="711.82,-38.69 701.52,-36.19 708.01,-44.57 711.82,-38.69"/>
</g>
<!-- 139911648772352 -->
<g id="node18" class="node">
<title>139911648772352</title>
<polygon fill="#006400" stroke="black" points="774,-36 720,-36 720,0 774,0 774,-36"/>
<text text-anchor="middle" x="747" y="-15.5" font-family="Times,serif" font-size="10.00">1.00</text>
</g>
<!-- 139972409280128&#45;&gt;139911648772352 -->
<g id="edge20" class="edge">
<title>139972409280128&#45;&gt;139911648772352</title>
<path fill="none" stroke="black" d="M774.1,-71.7C770,-63.73 765.05,-54.1 760.51,-45.26"/>
<polygon fill="black" stroke="black" points="763.48,-43.4 755.8,-36.1 757.26,-46.6 763.48,-43.4"/>
</g>
<!-- 139972406809920 -->
<g id="node19" class="node">
<title>139972406809920</title>
<polygon fill="#006400" stroke="black" points="846,-36 792,-36 792,0 846,0 846,-36"/>
<text text-anchor="middle" x="819" y="-15.5" font-family="Times,serif" font-size="10.00">1.00</text>
</g>
<!-- 139972409280128&#45;&gt;139972406809920 -->
<g id="edge21" class="edge">
<title>139972409280128&#45;&gt;139972406809920</title>
<path fill="none" stroke="black" d="M791.9,-71.7C796,-63.73 800.95,-54.1 805.49,-45.26"/>
<polygon fill="black" stroke="black" points="808.74,-46.6 810.2,-36.1 802.52,-43.4 808.74,-46.6"/>
</g>
<!-- 139972403790144 -->
<g id="node21" class="node">
<title>139972403790144</title>
<polygon fill="#006400" stroke="black" points="918,-36 864,-36 864,0 918,0 918,-36"/>
<text text-anchor="middle" x="891" y="-15.5" font-family="Times,serif" font-size="10.00">1.00</text>
</g>
<!-- 139972411924864&#45;&gt;139972403790144 -->
<g id="edge22" class="edge">
<title>139972411924864&#45;&gt;139972403790144</title>
<path fill="none" stroke="black" d="M1007.91,-75.83C985.23,-64.81 952.64,-48.97 927.63,-36.81"/>
<polygon fill="black" stroke="black" points="928.98,-33.57 918.45,-32.35 925.92,-39.87 928.98,-33.57"/>
</g>
<!-- 139972395939392 -->
<g id="node22" class="node">
<title>139972395939392</title>
<polygon fill="#006400" stroke="black" points="990,-36 936,-36 936,0 990,0 990,-36"/>
<text text-anchor="middle" x="963" y="-15.5" font-family="Times,serif" font-size="10.00">1.00</text>
</g>
<!-- 139972411924864&#45;&gt;139972395939392 -->
<g id="edge24" class="edge">
<title>139972411924864&#45;&gt;139972395939392</title>
<path fill="none" stroke="black" d="M1017.2,-71.7C1008.4,-63.14 997.62,-52.66 988,-43.3"/>
<polygon fill="black" stroke="black" points="990.2,-40.57 980.59,-36.1 985.32,-45.58 990.2,-40.57"/>
</g>
<!-- 139972439718144 -->
<g id="node23" class="node">
<title>139972439718144</title>
<polygon fill="#006400" stroke="black" points="1062,-36 1008,-36 1008,0 1062,0 1062,-36"/>
<text text-anchor="middle" x="1035" y="-15.5" font-family="Times,serif" font-size="10.00">1.00</text>
</g>
<!-- 139972411924864&#45;&gt;139972439718144 -->
<g id="edge23" class="edge">
<title>139972411924864&#45;&gt;139972439718144</title>
<path fill="none" stroke="black" d="M1035,-71.7C1035,-63.98 1035,-54.71 1035,-46.11"/>
<polygon fill="black" stroke="black" points="1038.5,-46.1 1035,-36.1 1031.5,-46.1 1038.5,-46.1"/>
</g>
<!-- 139972381331968 -->
<g id="node25" class="node">
<title>139972381331968</title>
<polygon fill="#006400" stroke="black" points="1134,-36 1080,-36 1080,0 1134,0 1134,-36"/>
<text text-anchor="middle" x="1107" y="-15.5" font-family="Times,serif" font-size="10.00">1.00</text>
</g>
<!-- 139972417348416&#45;&gt;139972381331968 -->
<g id="edge25" class="edge">
<title>139972417348416&#45;&gt;139972381331968</title>
<path fill="none" stroke="black" d="M1134.1,-71.7C1130,-63.73 1125.05,-54.1 1120.51,-45.26"/>
<polygon fill="black" stroke="black" points="1123.48,-43.4 1115.8,-36.1 1117.26,-46.6 1123.48,-43.4"/>
</g>
<!-- 139972373382400 -->
<g id="node26" class="node">
<title>139972373382400</title>
<polygon fill="#006400" stroke="black" points="1206,-36 1152,-36 1152,0 1206,0 1206,-36"/>
<text text-anchor="middle" x="1179" y="-15.5" font-family="Times,serif" font-size="10.00">1.00</text>
</g>
<!-- 139972417348416&#45;&gt;139972373382400 -->
<g id="edge26" class="edge">
<title>139972417348416&#45;&gt;139972373382400</title>
<path fill="none" stroke="black" d="M1151.9,-71.7C1156,-63.73 1160.95,-54.1 1165.49,-45.26"/>
<polygon fill="black" stroke="black" points="1168.74,-46.6 1170.2,-36.1 1162.52,-43.4 1168.74,-46.6"/>
</g>
<!-- 139972028162176 -->
<g id="node27" class="node">
<title>139972028162176</title>
<polygon fill="#006400" stroke="black" points="1278,-36 1224,-36 1224,0 1278,0 1278,-36"/>
<text text-anchor="middle" x="1251" y="-15.5" font-family="Times,serif" font-size="10.00">1.00</text>
</g>
<!-- 139972417348416&#45;&gt;139972028162176 -->
<g id="edge27" class="edge">
<title>139972417348416&#45;&gt;139972028162176</title>
<path fill="none" stroke="black" d="M1169.42,-71.88C1183.41,-62.81 1200.78,-51.55 1215.89,-41.76"/>
<polygon fill="black" stroke="black" points="1217.99,-44.57 1224.48,-36.19 1214.18,-38.69 1217.99,-44.57"/>
</g>
<!-- 139972360716864 -->
<g id="node29" class="node">
<title>139972360716864</title>
<polygon fill="#e0ffe0" stroke="black" points="1458,-108 1404,-108 1404,-72 1458,-72 1458,-108"/>
<text text-anchor="middle" x="1431" y="-87.5" font-family="Times,serif" font-size="10.00">0.00</text>
</g>
<!-- 139972209270848&#45;&gt;139972360716864 -->
<g id="edge28" class="edge">
<title>139972209270848&#45;&gt;139972360716864</title>
<path fill="none" stroke="black" d="M1485.2,-143.7C1476.4,-135.14 1465.62,-124.66 1456,-115.3"/>
<polygon fill="black" stroke="black" points="1458.2,-112.57 1448.59,-108.1 1453.32,-117.58 1458.2,-112.57"/>
</g>
<!-- 139972211561344 -->
<g id="node33" class="node">
<title>139972211561344</title>
<polygon fill="#006400" stroke="black" points="1602,-108 1548,-108 1548,-72 1602,-72 1602,-108"/>
<text text-anchor="middle" x="1575" y="-87.5" font-family="Times,serif" font-size="10.00">1.00</text>
</g>
<!-- 139972209270848&#45;&gt;139972211561344 -->
<g id="edge30" class="edge">
<title>139972209270848&#45;&gt;139972211561344</title>
<path fill="none" stroke="black" d="M1520.8,-143.7C1529.6,-135.14 1540.38,-124.66 1550,-115.3"/>
<polygon fill="black" stroke="black" points="1552.68,-117.58 1557.41,-108.1 1547.8,-112.57 1552.68,-117.58"/>
</g>
<!-- 139972388038784 -->
<g id="node37" class="node">
<title>139972388038784</title>
<polygon fill="#006400" stroke="black" points="1782,-108 1728,-108 1728,-72 1782,-72 1782,-108"/>
<text text-anchor="middle" x="1755" y="-87.5" font-family="Times,serif" font-size="10.00">1.00</text>
</g>
<!-- 139972209270848&#45;&gt;139972388038784 -->
<g id="edge29" class="edge">
<title>139972209270848&#45;&gt;139972388038784</title>
<path fill="none" stroke="black" d="M1530.45,-153.38C1576.01,-140.72 1667.29,-115.36 1718.32,-101.19"/>
<polygon fill="black" stroke="black" points="1719.27,-104.56 1727.97,-98.51 1717.4,-97.81 1719.27,-104.56"/>
</g>
<!-- 139972398917440 -->
<g id="node30" class="node">
<title>139972398917440</title>
<polygon fill="#e0ffe0" stroke="black" points="1350,-36 1296,-36 1296,0 1350,0 1350,-36"/>
<text text-anchor="middle" x="1323" y="-15.5" font-family="Times,serif" font-size="10.00">0.00</text>
</g>
<!-- 139972360716864&#45;&gt;139972398917440 -->
<g id="edge31" class="edge">
<title>139972360716864&#45;&gt;139972398917440</title>
<path fill="none" stroke="black" d="M1404.58,-71.88C1390.59,-62.81 1373.22,-51.55 1358.11,-41.76"/>
<polygon fill="black" stroke="black" points="1359.82,-38.69 1349.52,-36.19 1356.01,-44.57 1359.82,-38.69"/>
</g>
<!-- 139972203275072 -->
<g id="node31" class="node">
<title>139972203275072</title>
<polygon fill="#e0ffe0" stroke="black" points="1422,-36 1368,-36 1368,0 1422,0 1422,-36"/>
<text text-anchor="middle" x="1395" y="-15.5" font-family="Times,serif" font-size="10.00">0.00</text>
</g>
<!-- 139972360716864&#45;&gt;139972203275072 -->
<g id="edge32" class="edge">
<title>139972360716864&#45;&gt;139972203275072</title>
<path fill="none" stroke="black" d="M1422.1,-71.7C1418,-63.73 1413.05,-54.1 1408.51,-45.26"/>
<polygon fill="black" stroke="black" points="1411.48,-43.4 1403.8,-36.1 1405.26,-46.6 1411.48,-43.4"/>
</g>
<!-- 139972414413952 -->
<g id="node32" class="node">
<title>139972414413952</title>
<polygon fill="#e0ffe0" stroke="black" points="1494,-36 1440,-36 1440,0 1494,0 1494,-36"/>
<text text-anchor="middle" x="1467" y="-15.5" font-family="Times,serif" font-size="10.00">0.00</text>
</g>
<!-- 139972360716864&#45;&gt;139972414413952 -->
<g id="edge33" class="edge">
<title>139972360716864&#45;&gt;139972414413952</title>
<path fill="none" stroke="black" d="M1439.9,-71.7C1444,-63.73 1448.95,-54.1 1453.49,-45.26"/>
<polygon fill="black" stroke="black" points="1456.74,-46.6 1458.2,-36.1 1450.52,-43.4 1456.74,-46.6"/>
</g>
<!-- 139972418858944 -->
<g id="node34" class="node">
<title>139972418858944</title>
<polygon fill="#006400" stroke="black" points="1566,-36 1512,-36 1512,0 1566,0 1566,-36"/>
<text text-anchor="middle" x="1539" y="-15.5" font-family="Times,serif" font-size="10.00">1.00</text>
</g>
<!-- 139972211561344&#45;&gt;139972418858944 -->
<g id="edge34" class="edge">
<title>139972211561344&#45;&gt;139972418858944</title>
<path fill="none" stroke="black" d="M1566.1,-71.7C1562,-63.73 1557.05,-54.1 1552.51,-45.26"/>
<polygon fill="black" stroke="black" points="1555.48,-43.4 1547.8,-36.1 1549.26,-46.6 1555.48,-43.4"/>
</g>
<!-- 139972411987136 -->
<g id="node35" class="node">
<title>139972411987136</title>
<polygon fill="#006400" stroke="black" points="1638,-36 1584,-36 1584,0 1638,0 1638,-36"/>
<text text-anchor="middle" x="1611" y="-15.5" font-family="Times,serif" font-size="10.00">1.00</text>
</g>
<!-- 139972211561344&#45;&gt;139972411987136 -->
<g id="edge36" class="edge">
<title>139972211561344&#45;&gt;139972411987136</title>
<path fill="none" stroke="black" d="M1583.9,-71.7C1588,-63.73 1592.95,-54.1 1597.49,-45.26"/>
<polygon fill="black" stroke="black" points="1600.74,-46.6 1602.2,-36.1 1594.52,-43.4 1600.74,-46.6"/>
</g>
<!-- 139972430988096 -->
<g id="node36" class="node">
<title>139972430988096</title>
<polygon fill="#006400" stroke="black" points="1710,-36 1656,-36 1656,0 1710,0 1710,-36"/>
<text text-anchor="middle" x="1683" y="-15.5" font-family="Times,serif" font-size="10.00">1.00</text>
</g>
<!-- 139972211561344&#45;&gt;139972430988096 -->
<g id="edge35" class="edge">
<title>139972211561344&#45;&gt;139972430988096</title>
<path fill="none" stroke="black" d="M1601.42,-71.88C1615.41,-62.81 1632.78,-51.55 1647.89,-41.76"/>
<polygon fill="black" stroke="black" points="1649.99,-44.57 1656.48,-36.19 1646.18,-38.69 1649.99,-44.57"/>
</g>
<!-- 139972410631744 -->
<g id="node38" class="node">
<title>139972410631744</title>
<polygon fill="#006400" stroke="black" points="1782,-36 1728,-36 1728,0 1782,0 1782,-36"/>
<text text-anchor="middle" x="1755" y="-15.5" font-family="Times,serif" font-size="10.00">1.00</text>
</g>
<!-- 139972388038784&#45;&gt;139972410631744 -->
<g id="edge37" class="edge">
<title>139972388038784&#45;&gt;139972410631744</title>
<path fill="none" stroke="black" d="M1755,-71.7C1755,-63.98 1755,-54.71 1755,-46.11"/>
<polygon fill="black" stroke="black" points="1758.5,-46.1 1755,-36.1 1751.5,-46.1 1758.5,-46.1"/>
</g>
<!-- 139972202981376 -->
<g id="node39" class="node">
<title>139972202981376</title>
<polygon fill="#006400" stroke="black" points="1854,-36 1800,-36 1800,0 1854,0 1854,-36"/>
<text text-anchor="middle" x="1827" y="-15.5" font-family="Times,serif" font-size="10.00">1.00</text>
</g>
<!-- 139972388038784&#45;&gt;139972202981376 -->
<g id="edge38" class="edge">
<title>139972388038784&#45;&gt;139972202981376</title>
<path fill="none" stroke="black" d="M1772.8,-71.7C1781.6,-63.14 1792.38,-52.66 1802,-43.3"/>
<polygon fill="black" stroke="black" points="1804.68,-45.58 1809.41,-36.1 1799.8,-40.57 1804.68,-45.58"/>
</g>
<!-- 139972359981952 -->
<g id="node40" class="node">
<title>139972359981952</title>
<polygon fill="#006400" stroke="black" points="1926,-36 1872,-36 1872,0 1926,0 1926,-36"/>
<text text-anchor="middle" x="1899" y="-15.5" font-family="Times,serif" font-size="10.00">1.00</text>
</g>
<!-- 139972388038784&#45;&gt;139972359981952 -->
<g id="edge39" class="edge">
<title>139972388038784&#45;&gt;139972359981952</title>
<path fill="none" stroke="black" d="M1782.09,-75.83C1804.77,-64.81 1837.36,-48.97 1862.37,-36.81"/>
<polygon fill="black" stroke="black" points="1864.08,-39.87 1871.55,-32.35 1861.02,-33.57 1864.08,-39.87"/>
</g>
<!-- 139972434850880 -->
<g id="node41" class="node">
<title>139972434850880</title>
<polygon fill="#006400" stroke="black" points="2142,-252 2088,-252 2088,-216 2142,-216 2142,-252"/>
<text text-anchor="middle" x="2115" y="-231.5" font-family="Times,serif" font-size="10.00">1.00</text>
</g>
<!-- 139972421150336 -->
<g id="node42" class="node">
<title>139972421150336</title>
<polygon fill="#006400" stroke="black" points="1962,-180 1908,-180 1908,-144 1962,-144 1962,-180"/>
<text text-anchor="middle" x="1935" y="-159.5" font-family="Times,serif" font-size="10.00">1.00</text>
</g>
<!-- 139972434850880&#45;&gt;139972421150336 -->
<g id="edge40" class="edge">
<title>139972434850880&#45;&gt;139972421150336</title>
<path fill="none" stroke="black" d="M2087.66,-222.37C2056.69,-210.32 2006.07,-190.64 1971.68,-177.26"/>
<polygon fill="black" stroke="black" points="1972.59,-173.86 1962.01,-173.5 1970.06,-180.39 1972.59,-173.86"/>
</g>
<!-- 139972414254848 -->
<g id="node46" class="node">
<title>139972414254848</title>
<polygon fill="#e0ffe0" stroke="black" points="2142,-180 2088,-180 2088,-144 2142,-144 2142,-180"/>
<text text-anchor="middle" x="2115" y="-159.5" font-family="Times,serif" font-size="10.00">0.00</text>
</g>
<!-- 139972434850880&#45;&gt;139972414254848 -->
<g id="edge41" class="edge">
<title>139972434850880&#45;&gt;139972414254848</title>
<path fill="none" stroke="black" d="M2115,-215.7C2115,-207.98 2115,-198.71 2115,-190.11"/>
<polygon fill="black" stroke="black" points="2118.5,-190.1 2115,-180.1 2111.5,-190.1 2118.5,-190.1"/>
</g>
<!-- 139972418699776 -->
<g id="node53" class="node">
<title>139972418699776</title>
<polygon fill="#006400" stroke="black" points="2322,-180 2268,-180 2268,-144 2322,-144 2322,-180"/>
<text text-anchor="middle" x="2295" y="-159.5" font-family="Times,serif" font-size="10.00">1.00</text>
</g>
<!-- 139972434850880&#45;&gt;139972418699776 -->
<g id="edge42" class="edge">
<title>139972434850880&#45;&gt;139972418699776</title>
<path fill="none" stroke="black" d="M2142.34,-222.37C2173.31,-210.32 2223.93,-190.64 2258.32,-177.26"/>
<polygon fill="black" stroke="black" points="2259.94,-180.39 2267.99,-173.5 2257.41,-173.86 2259.94,-180.39"/>
</g>
<!-- 139972411531776 -->
<g id="node43" class="node">
<title>139972411531776</title>
<polygon fill="#006400" stroke="black" points="1854,-108 1800,-108 1800,-72 1854,-72 1854,-108"/>
<text text-anchor="middle" x="1827" y="-87.5" font-family="Times,serif" font-size="10.00">1.00</text>
</g>
<!-- 139972421150336&#45;&gt;139972411531776 -->
<g id="edge43" class="edge">
<title>139972421150336&#45;&gt;139972411531776</title>
<path fill="none" stroke="black" d="M1908.58,-143.88C1894.59,-134.81 1877.22,-123.55 1862.11,-113.76"/>
<polygon fill="black" stroke="black" points="1863.82,-110.69 1853.52,-108.19 1860.01,-116.57 1863.82,-110.69"/>
</g>
<!-- 139972385268608 -->
<g id="node44" class="node">
<title>139972385268608</title>
<polygon fill="#006400" stroke="black" points="1926,-108 1872,-108 1872,-72 1926,-72 1926,-108"/>
<text text-anchor="middle" x="1899" y="-87.5" font-family="Times,serif" font-size="10.00">1.00</text>
</g>
<!-- 139972421150336&#45;&gt;139972385268608 -->
<g id="edge45" class="edge">
<title>139972421150336&#45;&gt;139972385268608</title>
<path fill="none" stroke="black" d="M1926.1,-143.7C1922,-135.73 1917.05,-126.1 1912.51,-117.26"/>
<polygon fill="black" stroke="black" points="1915.48,-115.4 1907.8,-108.1 1909.26,-118.6 1915.48,-115.4"/>
</g>
<!-- 139972398029952 -->
<g id="node45" class="node">
<title>139972398029952</title>
<polygon fill="#006400" stroke="black" points="1998,-108 1944,-108 1944,-72 1998,-72 1998,-108"/>
<text text-anchor="middle" x="1971" y="-87.5" font-family="Times,serif" font-size="10.00">1.00</text>
</g>
<!-- 139972421150336&#45;&gt;139972398029952 -->
<g id="edge44" class="edge">
<title>139972421150336&#45;&gt;139972398029952</title>
<path fill="none" stroke="black" d="M1943.9,-143.7C1948,-135.73 1952.95,-126.1 1957.49,-117.26"/>
<polygon fill="black" stroke="black" points="1960.74,-118.6 1962.2,-108.1 1954.52,-115.4 1960.74,-118.6"/>
</g>
<!-- 139972209661312 -->
<g id="node47" class="node">
<title>139972209661312</title>
<polygon fill="#e0ffe0" stroke="black" points="2070,-108 2016,-108 2016,-72 2070,-72 2070,-108"/>
<text text-anchor="middle" x="2043" y="-87.5" font-family="Times,serif" font-size="10.00">0.00</text>
</g>
<!-- 139972414254848&#45;&gt;139972209661312 -->
<g id="edge46" class="edge">
<title>139972414254848&#45;&gt;139972209661312</title>
<path fill="none" stroke="black" d="M2097.2,-143.7C2088.4,-135.14 2077.62,-124.66 2068,-115.3"/>
<polygon fill="black" stroke="black" points="2070.2,-112.57 2060.59,-108.1 2065.32,-117.58 2070.2,-112.57"/>
</g>
<!-- 139972366242304 -->
<g id="node48" class="node">
<title>139972366242304</title>
<polygon fill="#e0ffe0" stroke="black" points="2142,-108 2088,-108 2088,-72 2142,-72 2142,-108"/>
<text text-anchor="middle" x="2115" y="-87.5" font-family="Times,serif" font-size="10.00">0.00</text>
</g>
<!-- 139972414254848&#45;&gt;139972366242304 -->
<g id="edge47" class="edge">
<title>139972414254848&#45;&gt;139972366242304</title>
<path fill="none" stroke="black" d="M2115,-143.7C2115,-135.98 2115,-126.71 2115,-118.11"/>
<polygon fill="black" stroke="black" points="2118.5,-118.1 2115,-108.1 2111.5,-118.1 2118.5,-118.1"/>
</g>
<!-- 139972382686720 -->
<g id="node49" class="node">
<title>139972382686720</title>
<polygon fill="#006400" stroke="black" points="2214,-108 2160,-108 2160,-72 2214,-72 2214,-108"/>
<text text-anchor="middle" x="2187" y="-87.5" font-family="Times,serif" font-size="10.00">1.00</text>
</g>
<!-- 139972414254848&#45;&gt;139972382686720 -->
<g id="edge48" class="edge">
<title>139972414254848&#45;&gt;139972382686720</title>
<path fill="none" stroke="black" d="M2132.8,-143.7C2141.6,-135.14 2152.38,-124.66 2162,-115.3"/>
<polygon fill="black" stroke="black" points="2164.68,-117.58 2169.41,-108.1 2159.8,-112.57 2164.68,-117.58"/>
</g>
<!-- 139972183258176 -->
<g id="node50" class="node">
<title>139972183258176</title>
<polygon fill="#006400" stroke="black" points="2142,-36 2088,-36 2088,0 2142,0 2142,-36"/>
<text text-anchor="middle" x="2115" y="-15.5" font-family="Times,serif" font-size="10.00">1.00</text>
</g>
<!-- 139972382686720&#45;&gt;139972183258176 -->
<g id="edge49" class="edge">
<title>139972382686720&#45;&gt;139972183258176</title>
<path fill="none" stroke="black" d="M2169.2,-71.7C2160.4,-63.14 2149.62,-52.66 2140,-43.3"/>
<polygon fill="black" stroke="black" points="2142.2,-40.57 2132.59,-36.1 2137.32,-45.58 2142.2,-40.57"/>
</g>
<!-- 139972386057472 -->
<g id="node51" class="node">
<title>139972386057472</title>
<polygon fill="#006400" stroke="black" points="2214,-36 2160,-36 2160,0 2214,0 2214,-36"/>
<text text-anchor="middle" x="2187" y="-15.5" font-family="Times,serif" font-size="10.00">1.00</text>
</g>
<!-- 139972382686720&#45;&gt;139972386057472 -->
<g id="edge50" class="edge">
<title>139972382686720&#45;&gt;139972386057472</title>
<path fill="none" stroke="black" d="M2187,-71.7C2187,-63.98 2187,-54.71 2187,-46.11"/>
<polygon fill="black" stroke="black" points="2190.5,-46.1 2187,-36.1 2183.5,-46.1 2190.5,-46.1"/>
</g>
<!-- 139972381503872 -->
<g id="node52" class="node">
<title>139972381503872</title>
<polygon fill="#006400" stroke="black" points="2286,-36 2232,-36 2232,0 2286,0 2286,-36"/>
<text text-anchor="middle" x="2259" y="-15.5" font-family="Times,serif" font-size="10.00">1.00</text>
</g>
<!-- 139972382686720&#45;&gt;139972381503872 -->
<g id="edge51" class="edge">
<title>139972382686720&#45;&gt;139972381503872</title>
<path fill="none" stroke="black" d="M2204.8,-71.7C2213.6,-63.14 2224.38,-52.66 2234,-43.3"/>
<polygon fill="black" stroke="black" points="2236.68,-45.58 2241.41,-36.1 2231.8,-40.57 2236.68,-45.58"/>
</g>
<!-- 139972386341952 -->
<g id="node54" class="node">
<title>139972386341952</title>
<polygon fill="#006400" stroke="black" points="2286,-108 2232,-108 2232,-72 2286,-72 2286,-108"/>
<text text-anchor="middle" x="2259" y="-87.5" font-family="Times,serif" font-size="10.00">1.00</text>
</g>
<!-- 139972418699776&#45;&gt;139972386341952 -->
<g id="edge52" class="edge">
<title>139972418699776&#45;&gt;139972386341952</title>
<path fill="none" stroke="black" d="M2286.1,-143.7C2282,-135.73 2277.05,-126.1 2272.51,-117.26"/>
<polygon fill="black" stroke="black" points="2275.48,-115.4 2267.8,-108.1 2269.26,-118.6 2275.48,-115.4"/>
</g>
<!-- 139972439708288 -->
<g id="node55" class="node">
<title>139972439708288</title>
<polygon fill="#006400" stroke="black" points="2358,-108 2304,-108 2304,-72 2358,-72 2358,-108"/>
<text text-anchor="middle" x="2331" y="-87.5" font-family="Times,serif" font-size="10.00">1.00</text>
</g>
<!-- 139972418699776&#45;&gt;139972439708288 -->
<g id="edge54" class="edge">
<title>139972418699776&#45;&gt;139972439708288</title>
<path fill="none" stroke="black" d="M2303.9,-143.7C2308,-135.73 2312.95,-126.1 2317.49,-117.26"/>
<polygon fill="black" stroke="black" points="2320.74,-118.6 2322.2,-108.1 2314.52,-115.4 2320.74,-118.6"/>
</g>
<!-- 139972906362176 -->
<g id="node56" class="node">
<title>139972906362176</title>
<polygon fill="#006400" stroke="black" points="2430,-108 2376,-108 2376,-72 2430,-72 2430,-108"/>
<text text-anchor="middle" x="2403" y="-87.5" font-family="Times,serif" font-size="10.00">1.00</text>
</g>
<!-- 139972418699776&#45;&gt;139972906362176 -->
<g id="edge53" class="edge">
<title>139972418699776&#45;&gt;139972906362176</title>
<path fill="none" stroke="black" d="M2321.42,-143.88C2335.41,-134.81 2352.78,-123.55 2367.89,-113.76"/>
<polygon fill="black" stroke="black" points="2369.99,-116.57 2376.48,-108.19 2366.18,-110.69 2369.99,-116.57"/>
</g>
<!-- 139972390313088 -->
<g id="node57" class="node">
<title>139972390313088</title>
<polygon fill="#6fb16f" stroke="black" points="2799,-252 2745,-252 2745,-216 2799,-216 2799,-252"/>
<text text-anchor="middle" x="2772" y="-231.5" font-family="Times,serif" font-size="10.00">0.50</text>
</g>
<!-- 139972430689664 -->
<g id="node58" class="node">
<title>139972430689664</title>
<polygon fill="#e0ffe0" stroke="black" points="2727,-180 2673,-180 2673,-144 2727,-144 2727,-180"/>
<text text-anchor="middle" x="2700" y="-159.5" font-family="Times,serif" font-size="10.00">0.00</text>
</g>
<!-- 139972390313088&#45;&gt;139972430689664 -->
<g id="edge55" class="edge">
<title>139972390313088&#45;&gt;139972430689664</title>
<path fill="none" stroke="black" d="M2754.2,-215.7C2745.4,-207.14 2734.62,-196.66 2725,-187.3"/>
<polygon fill="black" stroke="black" points="2727.2,-184.57 2717.59,-180.1 2722.32,-189.58 2727.2,-184.57"/>
</g>
<!-- 139972389985216 -->
<g id="node71" class="node">
<title>139972389985216</title>
<polygon fill="#006400" stroke="black" points="2880,-180 2826,-180 2826,-144 2880,-144 2880,-180"/>
<text text-anchor="middle" x="2853" y="-159.5" font-family="Times,serif" font-size="10.00">1.00</text>
</g>
<!-- 139972390313088&#45;&gt;139972389985216 -->
<g id="edge57" class="edge">
<title>139972390313088&#45;&gt;139972389985216</title>
<path fill="none" stroke="black" d="M2792.02,-215.7C2802.13,-206.97 2814.54,-196.24 2825.52,-186.75"/>
<polygon fill="black" stroke="black" points="2827.93,-189.29 2833.21,-180.1 2823.35,-183.99 2827.93,-189.29"/>
</g>
<!-- 139972211449984 -->
<g id="node75" class="node">
<title>139972211449984</title>
<polygon fill="#006400" stroke="black" points="3096,-180 3042,-180 3042,-144 3096,-144 3096,-180"/>
<text text-anchor="middle" x="3069" y="-159.5" font-family="Times,serif" font-size="10.00">1.00</text>
</g>
<!-- 139972390313088&#45;&gt;139972211449984 -->
<g id="edge56" class="edge">
<title>139972390313088&#45;&gt;139972211449984</title>
<path fill="none" stroke="black" d="M2799.14,-226.6C2852.48,-214.03 2971.02,-186.09 3031.67,-171.8"/>
<polygon fill="black" stroke="black" points="3032.67,-175.16 3041.6,-169.46 3031.06,-168.35 3032.67,-175.16"/>
</g>
<!-- 139972209203520 -->
<g id="node59" class="node">
<title>139972209203520</title>
<polygon fill="#e0ffe0" stroke="black" points="2502,-108 2448,-108 2448,-72 2502,-72 2502,-108"/>
<text text-anchor="middle" x="2475" y="-87.5" font-family="Times,serif" font-size="10.00">0.00</text>
</g>
<!-- 139972430689664&#45;&gt;139972209203520 -->
<g id="edge58" class="edge">
<title>139972430689664&#45;&gt;139972209203520</title>
<path fill="none" stroke="black" d="M2672.86,-152.56C2632.65,-140.05 2557.16,-116.56 2511.95,-102.49"/>
<polygon fill="black" stroke="black" points="2512.82,-99.1 2502.24,-99.47 2510.75,-105.79 2512.82,-99.1"/>
</g>
<!-- 139972200021376 -->
<g id="node63" class="node">
<title>139972200021376</title>
<polygon fill="#e0ffe0" stroke="black" points="2682,-108 2628,-108 2628,-72 2682,-72 2682,-108"/>
<text text-anchor="middle" x="2655" y="-87.5" font-family="Times,serif" font-size="10.00">0.00</text>
</g>
<!-- 139972430689664&#45;&gt;139972200021376 -->
<g id="edge60" class="edge">
<title>139972430689664&#45;&gt;139972200021376</title>
<path fill="none" stroke="black" d="M2688.88,-143.7C2683.64,-135.56 2677.3,-125.69 2671.52,-116.7"/>
<polygon fill="black" stroke="black" points="2674.35,-114.62 2666,-108.1 2668.46,-118.41 2674.35,-114.62"/>
</g>
<!-- 139972205248640 -->
<g id="node67" class="node">
<title>139972205248640</title>
<polygon fill="#e0ffe0" stroke="black" points="2772,-108 2718,-108 2718,-72 2772,-72 2772,-108"/>
<text text-anchor="middle" x="2745" y="-87.5" font-family="Times,serif" font-size="10.00">0.00</text>
</g>
<!-- 139972430689664&#45;&gt;139972205248640 -->
<g id="edge59" class="edge">
<title>139972430689664&#45;&gt;139972205248640</title>
<path fill="none" stroke="black" d="M2711.12,-143.7C2716.36,-135.56 2722.7,-125.69 2728.48,-116.7"/>
<polygon fill="black" stroke="black" points="2731.54,-118.41 2734,-108.1 2725.65,-114.62 2731.54,-118.41"/>
</g>
<!-- 139972191669376 -->
<g id="node60" class="node">
<title>139972191669376</title>
<polygon fill="#e0ffe0" stroke="black" points="2358,-36 2304,-36 2304,0 2358,0 2358,-36"/>
<text text-anchor="middle" x="2331" y="-15.5" font-family="Times,serif" font-size="10.00">0.00</text>
</g>
<!-- 139972209203520&#45;&gt;139972191669376 -->
<g id="edge61" class="edge">
<title>139972209203520&#45;&gt;139972191669376</title>
<path fill="none" stroke="black" d="M2447.91,-75.83C2425.23,-64.81 2392.64,-48.97 2367.63,-36.81"/>
<polygon fill="black" stroke="black" points="2368.98,-33.57 2358.45,-32.35 2365.92,-39.87 2368.98,-33.57"/>
</g>
<!-- 139972374146560 -->
<g id="node61" class="node">
<title>139972374146560</title>
<polygon fill="#e0ffe0" stroke="black" points="2430,-36 2376,-36 2376,0 2430,0 2430,-36"/>
<text text-anchor="middle" x="2403" y="-15.5" font-family="Times,serif" font-size="10.00">0.00</text>
</g>
<!-- 139972209203520&#45;&gt;139972374146560 -->
<g id="edge62" class="edge">
<title>139972209203520&#45;&gt;139972374146560</title>
<path fill="none" stroke="black" d="M2457.2,-71.7C2448.4,-63.14 2437.62,-52.66 2428,-43.3"/>
<polygon fill="black" stroke="black" points="2430.2,-40.57 2420.59,-36.1 2425.32,-45.58 2430.2,-40.57"/>
</g>
<!-- 139972381120064 -->
<g id="node62" class="node">
<title>139972381120064</title>
<polygon fill="#e0ffe0" stroke="black" points="2502,-36 2448,-36 2448,0 2502,0 2502,-36"/>
<text text-anchor="middle" x="2475" y="-15.5" font-family="Times,serif" font-size="10.00">0.00</text>
</g>
<!-- 139972209203520&#45;&gt;139972381120064 -->
<g id="edge63" class="edge">
<title>139972209203520&#45;&gt;139972381120064</title>
<path fill="none" stroke="black" d="M2475,-71.7C2475,-63.98 2475,-54.71 2475,-46.11"/>
<polygon fill="black" stroke="black" points="2478.5,-46.1 2475,-36.1 2471.5,-46.1 2478.5,-46.1"/>
</g>
<!-- 139972202819200 -->
<g id="node64" class="node">
<title>139972202819200</title>
<polygon fill="#e0ffe0" stroke="black" points="2574,-36 2520,-36 2520,0 2574,0 2574,-36"/>
<text text-anchor="middle" x="2547" y="-15.5" font-family="Times,serif" font-size="10.00">0.00</text>
</g>
<!-- 139972200021376&#45;&gt;139972202819200 -->
<g id="edge64" class="edge">
<title>139972200021376&#45;&gt;139972202819200</title>
<path fill="none" stroke="black" d="M2628.58,-71.88C2614.59,-62.81 2597.22,-51.55 2582.11,-41.76"/>
<polygon fill="black" stroke="black" points="2583.82,-38.69 2573.52,-36.19 2580.01,-44.57 2583.82,-38.69"/>
</g>
<!-- 139972373819008 -->
<g id="node65" class="node">
<title>139972373819008</title>
<polygon fill="#e0ffe0" stroke="black" points="2646,-36 2592,-36 2592,0 2646,0 2646,-36"/>
<text text-anchor="middle" x="2619" y="-15.5" font-family="Times,serif" font-size="10.00">0.00</text>
</g>
<!-- 139972200021376&#45;&gt;139972373819008 -->
<g id="edge66" class="edge">
<title>139972200021376&#45;&gt;139972373819008</title>
<path fill="none" stroke="black" d="M2646.1,-71.7C2642,-63.73 2637.05,-54.1 2632.51,-45.26"/>
<polygon fill="black" stroke="black" points="2635.48,-43.4 2627.8,-36.1 2629.26,-46.6 2635.48,-43.4"/>
</g>
<!-- 139972200018432 -->
<g id="node66" class="node">
<title>139972200018432</title>
<polygon fill="#e0ffe0" stroke="black" points="2718,-36 2664,-36 2664,0 2718,0 2718,-36"/>
<text text-anchor="middle" x="2691" y="-15.5" font-family="Times,serif" font-size="10.00">0.00</text>
</g>
<!-- 139972200021376&#45;&gt;139972200018432 -->
<g id="edge65" class="edge">
<title>139972200021376&#45;&gt;139972200018432</title>
<path fill="none" stroke="black" d="M2663.9,-71.7C2668,-63.73 2672.95,-54.1 2677.49,-45.26"/>
<polygon fill="black" stroke="black" points="2680.74,-46.6 2682.2,-36.1 2674.52,-43.4 2680.74,-46.6"/>
</g>
<!-- 139972204363840 -->
<g id="node68" class="node">
<title>139972204363840</title>
<polygon fill="#e0ffe0" stroke="black" points="2790,-36 2736,-36 2736,0 2790,0 2790,-36"/>
<text text-anchor="middle" x="2763" y="-15.5" font-family="Times,serif" font-size="10.00">0.00</text>
</g>
<!-- 139972205248640&#45;&gt;139972204363840 -->
<g id="edge67" class="edge">
<title>139972205248640&#45;&gt;139972204363840</title>
<path fill="none" stroke="black" d="M2749.45,-71.7C2751.45,-63.9 2753.87,-54.51 2756.1,-45.83"/>
<polygon fill="black" stroke="black" points="2759.5,-46.66 2758.6,-36.1 2752.72,-44.92 2759.5,-46.66"/>
</g>
<!-- 139972399122240 -->
<g id="node69" class="node">
<title>139972399122240</title>
<polygon fill="#e0ffe0" stroke="black" points="2862,-36 2808,-36 2808,0 2862,0 2862,-36"/>
<text text-anchor="middle" x="2835" y="-15.5" font-family="Times,serif" font-size="10.00">0.00</text>
</g>
<!-- 139972205248640&#45;&gt;139972399122240 -->
<g id="edge68" class="edge">
<title>139972205248640&#45;&gt;139972399122240</title>
<path fill="none" stroke="black" d="M2767.25,-71.7C2778.58,-62.88 2792.53,-52.03 2804.82,-42.47"/>
<polygon fill="black" stroke="black" points="2807.26,-45.01 2813.01,-36.1 2802.97,-39.48 2807.26,-45.01"/>
</g>
<!-- 139972210721984 -->
<g id="node70" class="node">
<title>139972210721984</title>
<polygon fill="#e0ffe0" stroke="black" points="2934,-36 2880,-36 2880,0 2934,0 2934,-36"/>
<text text-anchor="middle" x="2907" y="-15.5" font-family="Times,serif" font-size="10.00">0.00</text>
</g>
<!-- 139972205248640&#45;&gt;139972210721984 -->
<g id="edge69" class="edge">
<title>139972205248640&#45;&gt;139972210721984</title>
<path fill="none" stroke="black" d="M2772.05,-76.01C2775.06,-74.63 2778.09,-73.27 2781,-72 2817.87,-55.94 2829.92,-53.49 2870.78,-35.96"/>
<polygon fill="black" stroke="black" points="2872.17,-39.18 2879.95,-31.99 2869.39,-32.75 2872.17,-39.18"/>
</g>
<!-- 139972417426944 -->
<g id="node72" class="node">
<title>139972417426944</title>
<polygon fill="#006400" stroke="black" points="2844,-108 2790,-108 2790,-72 2844,-72 2844,-108"/>
<text text-anchor="middle" x="2817" y="-87.5" font-family="Times,serif" font-size="10.00">1.00</text>
</g>
<!-- 139972389985216&#45;&gt;139972417426944 -->
<g id="edge70" class="edge">
<title>139972389985216&#45;&gt;139972417426944</title>
<path fill="none" stroke="black" d="M2844.1,-143.7C2840,-135.73 2835.05,-126.1 2830.51,-117.26"/>
<polygon fill="black" stroke="black" points="2833.48,-115.4 2825.8,-108.1 2827.26,-118.6 2833.48,-115.4"/>
</g>
<!-- 139972385235712 -->
<g id="node73" class="node">
<title>139972385235712</title>
<polygon fill="#006400" stroke="black" points="2916,-108 2862,-108 2862,-72 2916,-72 2916,-108"/>
<text text-anchor="middle" x="2889" y="-87.5" font-family="Times,serif" font-size="10.00">1.00</text>
</g>
<!-- 139972389985216&#45;&gt;139972385235712 -->
<g id="edge71" class="edge">
<title>139972389985216&#45;&gt;139972385235712</title>
<path fill="none" stroke="black" d="M2861.9,-143.7C2866,-135.73 2870.95,-126.1 2875.49,-117.26"/>
<polygon fill="black" stroke="black" points="2878.74,-118.6 2880.2,-108.1 2872.52,-115.4 2878.74,-118.6"/>
</g>
<!-- 139972361438336 -->
<g id="node74" class="node">
<title>139972361438336</title>
<polygon fill="#006400" stroke="black" points="2988,-108 2934,-108 2934,-72 2988,-72 2988,-108"/>
<text text-anchor="middle" x="2961" y="-87.5" font-family="Times,serif" font-size="10.00">1.00</text>
</g>
<!-- 139972389985216&#45;&gt;139972361438336 -->
<g id="edge72" class="edge">
<title>139972389985216&#45;&gt;139972361438336</title>
<path fill="none" stroke="black" d="M2879.42,-143.88C2893.41,-134.81 2910.78,-123.55 2925.89,-113.76"/>
<polygon fill="black" stroke="black" points="2927.99,-116.57 2934.48,-108.19 2924.18,-110.69 2927.99,-116.57"/>
</g>
<!-- 139972389669952 -->
<g id="node76" class="node">
<title>139972389669952</title>
<polygon fill="#006400" stroke="black" points="3060,-108 3006,-108 3006,-72 3060,-72 3060,-108"/>
<text text-anchor="middle" x="3033" y="-87.5" font-family="Times,serif" font-size="10.00">1.00</text>
</g>
<!-- 139972211449984&#45;&gt;139972389669952 -->
<g id="edge73" class="edge">
<title>139972211449984&#45;&gt;139972389669952</title>
<path fill="none" stroke="black" d="M3060.1,-143.7C3056,-135.73 3051.05,-126.1 3046.51,-117.26"/>
<polygon fill="black" stroke="black" points="3049.48,-115.4 3041.8,-108.1 3043.26,-118.6 3049.48,-115.4"/>
</g>
<!-- 139972377310720 -->
<g id="node77" class="node">
<title>139972377310720</title>
<polygon fill="#006400" stroke="black" points="3132,-108 3078,-108 3078,-72 3132,-72 3132,-108"/>
<text text-anchor="middle" x="3105" y="-87.5" font-family="Times,serif" font-size="10.00">1.00</text>
</g>
<!-- 139972211449984&#45;&gt;139972377310720 -->
<g id="edge74" class="edge">
<title>139972211449984&#45;&gt;139972377310720</title>
<path fill="none" stroke="black" d="M3077.9,-143.7C3082,-135.73 3086.95,-126.1 3091.49,-117.26"/>
<polygon fill="black" stroke="black" points="3094.74,-118.6 3096.2,-108.1 3088.52,-115.4 3094.74,-118.6"/>
</g>
<!-- 139972413912000 -->
<g id="node78" class="node">
<title>139972413912000</title>
<polygon fill="#006400" stroke="black" points="3204,-108 3150,-108 3150,-72 3204,-72 3204,-108"/>
<text text-anchor="middle" x="3177" y="-87.5" font-family="Times,serif" font-size="10.00">1.00</text>
</g>
<!-- 139972211449984&#45;&gt;139972413912000 -->
<g id="edge75" class="edge">
<title>139972211449984&#45;&gt;139972413912000</title>
<path fill="none" stroke="black" d="M3095.42,-143.88C3109.41,-134.81 3126.78,-123.55 3141.89,-113.76"/>
<polygon fill="black" stroke="black" points="3143.99,-116.57 3150.48,-108.19 3140.18,-110.69 3143.99,-116.57"/>
</g>
<!-- 139972183252800 -->
<g id="node79" class="node">
<title>139972183252800</title>
<polygon fill="#4a974a" stroke="black" points="2142,-324 2088,-324 2088,-288 2142,-288 2142,-324"/>
<text text-anchor="middle" x="2115" y="-303.5" font-family="Times,serif" font-size="10.00">0.67</text>
</g>
<!-- 139972183252800&#45;&gt;139972360928128 -->
<g id="edge76" class="edge">
<title>139972183252800&#45;&gt;139972360928128</title>
<path fill="none" stroke="black" d="M2087.72,-302.79C1961.51,-292.56 1434.31,-249.85 1288.51,-238.04"/>
<polygon fill="black" stroke="black" points="1288.54,-234.53 1278.29,-237.21 1287.98,-241.51 1288.54,-234.53"/>
</g>
<!-- 139972183252800&#45;&gt;139972434850880 -->
<g id="edge77" class="edge">
<title>139972183252800&#45;&gt;139972434850880</title>
<path fill="none" stroke="black" d="M2115,-287.7C2115,-279.98 2115,-270.71 2115,-262.11"/>
<polygon fill="black" stroke="black" points="2118.5,-262.1 2115,-252.1 2111.5,-262.1 2118.5,-262.1"/>
</g>
<!-- 139972183252800&#45;&gt;139972390313088 -->
<g id="edge78" class="edge">
<title>139972183252800&#45;&gt;139972390313088</title>
<path fill="none" stroke="black" d="M2142.39,-302.08C2246.24,-291.02 2615.76,-251.65 2734.78,-238.97"/>
<polygon fill="black" stroke="black" points="2735.28,-242.43 2744.85,-237.89 2734.54,-235.47 2735.28,-242.43"/>
</g>
</g>
</svg>
